<mxfile host="app.diagrams.net" agent="Mozilla/5.0 (Windows NT 10.0; Win64; x64) AppleWebKit/537.36 (KHTML, like Gecko) Chrome/138.0.0.0 Safari/537.36 Edg/138.0.0.0" version="28.0.6" pages="3">
  <diagram name="语音业务系统" id="S9QDfNhmJ7V_8WX33acT">
    <mxGraphModel dx="1847" dy="748" grid="1" gridSize="10" guides="1" tooltips="1" connect="1" arrows="1" fold="1" page="1" pageScale="1" pageWidth="827" pageHeight="1169" math="0" shadow="0">
      <root>
        <mxCell id="0" />
        <mxCell id="1" parent="0" />
        <mxCell id="J4jzHmCt1ID5oluIzcKl-1" value="语音业务系统2.0" style="rounded=0;whiteSpace=wrap;html=1;shadow=1;glass=0;verticalAlign=top;align=left;fontStyle=1;fontSize=15;" parent="1" vertex="1">
          <mxGeometry x="-480" y="110" width="1000" height="710" as="geometry" />
        </mxCell>
        <mxCell id="J4jzHmCt1ID5oluIzcKl-2" value="&lt;b&gt;&lt;font style=&quot;font-size: 14px;&quot;&gt;Voice Agent 2.0&lt;/font&gt;&lt;/b&gt;" style="rounded=0;whiteSpace=wrap;html=1;verticalAlign=top;fillColor=#f5f5f5;fontColor=#333333;strokeColor=none;shadow=1;align=center;" parent="1" vertex="1">
          <mxGeometry x="-160" y="520" width="520" height="280" as="geometry" />
        </mxCell>
        <mxCell id="J4jzHmCt1ID5oluIzcKl-3" value="图例" style="shape=document;whiteSpace=wrap;html=1;boundedLbl=1;verticalAlign=top;fontSize=14;fontStyle=1;textShadow=0;labelBackgroundColor=none;labelBorderColor=none;shadow=1;" parent="1" vertex="1">
          <mxGeometry x="180" y="135" width="320" height="130" as="geometry" />
        </mxCell>
        <mxCell id="J4jzHmCt1ID5oluIzcKl-4" value="用户 电话" style="rounded=0;whiteSpace=wrap;html=1;verticalAlign=top;fillColor=#f5f5f5;fontColor=#333333;strokeColor=none;shadow=1;" parent="1" vertex="1">
          <mxGeometry x="-700" y="120" width="200" height="90" as="geometry" />
        </mxCell>
        <mxCell id="J4jzHmCt1ID5oluIzcKl-5" value="&lt;b&gt;&lt;font&gt;渠道适配服务&lt;/font&gt;&lt;/b&gt;" style="rounded=0;whiteSpace=wrap;html=1;verticalAlign=top;fillColor=#f5f5f5;fontColor=#333333;strokeColor=none;fontSize=12;shadow=1;" parent="1" vertex="1">
          <mxGeometry x="360" y="360" width="130" height="120" as="geometry" />
        </mxCell>
        <mxCell id="J4jzHmCt1ID5oluIzcKl-6" value="坐席/外呼 Web终端" style="rounded=0;whiteSpace=wrap;html=1;verticalAlign=top;fillColor=#f5f5f5;fontColor=#333333;strokeColor=none;shadow=1;" parent="1" vertex="1">
          <mxGeometry x="-80" y="150" width="190" height="80" as="geometry" />
        </mxCell>
        <mxCell id="J4jzHmCt1ID5oluIzcKl-7" value="坐席/外呼 话机" style="rounded=0;whiteSpace=wrap;html=1;verticalAlign=top;fillColor=#f5f5f5;fontColor=#333333;strokeColor=none;shadow=1;" parent="1" vertex="1">
          <mxGeometry x="-290" y="150" width="190" height="80" as="geometry" />
        </mxCell>
        <mxCell id="J4jzHmCt1ID5oluIzcKl-8" value="FreeSWITCH" style="rounded=0;whiteSpace=wrap;html=1;fillColor=#d5e8d4;gradientColor=#97d077;strokeColor=none;" parent="1" vertex="1">
          <mxGeometry x="-280" y="440" width="120" height="40" as="geometry" />
        </mxCell>
        <mxCell id="J4jzHmCt1ID5oluIzcKl-9" value="SIP代理服务" style="rounded=0;whiteSpace=wrap;html=1;fillColor=#f8cecc;gradientColor=#ea6b66;strokeColor=none;" parent="1" vertex="1">
          <mxGeometry x="-120" y="559" width="120" height="40" as="geometry" />
        </mxCell>
        <mxCell id="J4jzHmCt1ID5oluIzcKl-10" value="人工坐席服务" style="rounded=0;whiteSpace=wrap;html=1;fillColor=#ffcd28;gradientColor=#ffa500;strokeColor=none;" parent="1" vertex="1">
          <mxGeometry x="40" y="320" width="120" height="40" as="geometry" />
        </mxCell>
        <mxCell id="J4jzHmCt1ID5oluIzcKl-11" value="Voice Agent 服务&lt;div&gt;（可接入多Agent）&lt;/div&gt;" style="rounded=0;whiteSpace=wrap;html=1;fillColor=#dae8fc;gradientColor=#7ea6e0;strokeColor=none;" parent="1" vertex="1">
          <mxGeometry x="40" y="559" width="120" height="40" as="geometry" />
        </mxCell>
        <mxCell id="J4jzHmCt1ID5oluIzcKl-12" value="自动外呼服务" style="rounded=0;whiteSpace=wrap;html=1;fillColor=#ffcd28;gradientColor=#ffa500;strokeColor=none;" parent="1" vertex="1">
          <mxGeometry x="40" y="380" width="120" height="40" as="geometry" />
        </mxCell>
        <mxCell id="J4jzHmCt1ID5oluIzcKl-13" value="" style="endArrow=none;html=1;rounded=0;exitX=0.5;exitY=1;exitDx=0;exitDy=0;entryX=0;entryY=0.5;entryDx=0;entryDy=0;dashed=1;strokeWidth=2;" parent="1" source="J4jzHmCt1ID5oluIzcKl-8" target="J4jzHmCt1ID5oluIzcKl-9" edge="1">
          <mxGeometry width="50" height="50" relative="1" as="geometry">
            <mxPoint x="-10" y="640" as="sourcePoint" />
            <mxPoint x="40" y="590" as="targetPoint" />
            <Array as="points">
              <mxPoint x="-220" y="580" />
            </Array>
          </mxGeometry>
        </mxCell>
        <mxCell id="J4jzHmCt1ID5oluIzcKl-14" value="sip/rtp" style="edgeLabel;html=1;align=center;verticalAlign=middle;resizable=0;points=[];" parent="J4jzHmCt1ID5oluIzcKl-13" vertex="1" connectable="0">
          <mxGeometry x="0.1" relative="1" as="geometry">
            <mxPoint x="-10" y="-60" as="offset" />
          </mxGeometry>
        </mxCell>
        <mxCell id="J4jzHmCt1ID5oluIzcKl-15" value="" style="endArrow=none;html=1;rounded=0;exitX=1;exitY=0.5;exitDx=0;exitDy=0;entryX=0;entryY=0.5;entryDx=0;entryDy=0;dashed=1;strokeWidth=2;" parent="1" source="J4jzHmCt1ID5oluIzcKl-9" target="J4jzHmCt1ID5oluIzcKl-11" edge="1">
          <mxGeometry width="50" height="50" relative="1" as="geometry">
            <mxPoint x="-10" y="679" as="sourcePoint" />
            <mxPoint x="40" y="579" as="targetPoint" />
          </mxGeometry>
        </mxCell>
        <mxCell id="J4jzHmCt1ID5oluIzcKl-16" value="sip/rtp" style="edgeLabel;html=1;align=center;verticalAlign=middle;resizable=0;points=[];" parent="J4jzHmCt1ID5oluIzcKl-15" vertex="1" connectable="0">
          <mxGeometry x="0.05" relative="1" as="geometry">
            <mxPoint as="offset" />
          </mxGeometry>
        </mxCell>
        <mxCell id="J4jzHmCt1ID5oluIzcKl-17" value="" style="endArrow=none;html=1;rounded=0;entryX=0;entryY=0.5;entryDx=0;entryDy=0;dashed=1;strokeWidth=2;" parent="1" target="J4jzHmCt1ID5oluIzcKl-37" edge="1">
          <mxGeometry width="50" height="50" relative="1" as="geometry">
            <mxPoint x="-160" y="460" as="sourcePoint" />
            <mxPoint x="40" y="590" as="targetPoint" />
            <Array as="points">
              <mxPoint x="40" y="460" />
            </Array>
          </mxGeometry>
        </mxCell>
        <mxCell id="J4jzHmCt1ID5oluIzcKl-18" value="sip/rtp" style="edgeLabel;html=1;align=center;verticalAlign=middle;resizable=0;points=[];" parent="J4jzHmCt1ID5oluIzcKl-17" vertex="1" connectable="0">
          <mxGeometry x="0.0041" y="1" relative="1" as="geometry">
            <mxPoint x="4" y="1" as="offset" />
          </mxGeometry>
        </mxCell>
        <mxCell id="J4jzHmCt1ID5oluIzcKl-19" value="公共电话网" style="ellipse;shape=cloud;whiteSpace=wrap;html=1;shadow=1;" parent="1" vertex="1">
          <mxGeometry x="-640" y="420" width="120" height="80" as="geometry" />
        </mxCell>
        <mxCell id="J4jzHmCt1ID5oluIzcKl-20" value="" style="endArrow=none;html=1;rounded=0;exitX=1;exitY=0.5;exitDx=0;exitDy=0;exitPerimeter=0;entryX=0;entryY=0.5;entryDx=0;entryDy=0;dashed=1;strokeWidth=2;" parent="1" source="J4jzHmCt1ID5oluIzcKl-58" target="J4jzHmCt1ID5oluIzcKl-8" edge="1">
          <mxGeometry width="50" height="50" relative="1" as="geometry">
            <mxPoint x="40" y="670" as="sourcePoint" />
            <mxPoint x="90" y="620" as="targetPoint" />
            <Array as="points">
              <mxPoint x="-300" y="460" />
            </Array>
          </mxGeometry>
        </mxCell>
        <mxCell id="J4jzHmCt1ID5oluIzcKl-21" value="sip/rtp" style="edgeLabel;html=1;align=center;verticalAlign=middle;resizable=0;points=[];" parent="J4jzHmCt1ID5oluIzcKl-20" vertex="1" connectable="0">
          <mxGeometry x="0.1636" y="3" relative="1" as="geometry">
            <mxPoint y="3" as="offset" />
          </mxGeometry>
        </mxCell>
        <mxCell id="J4jzHmCt1ID5oluIzcKl-22" value="VoiceConfig" style="rounded=0;whiteSpace=wrap;html=1;fillColor=#f8cecc;gradientColor=#ea6b66;strokeColor=none;" parent="1" vertex="1">
          <mxGeometry x="-120" y="350" width="120" height="40" as="geometry" />
        </mxCell>
        <mxCell id="J4jzHmCt1ID5oluIzcKl-23" value="" style="endArrow=none;html=1;rounded=0;entryX=0;entryY=0.5;entryDx=0;entryDy=0;exitX=1;exitY=0.25;exitDx=0;exitDy=0;" parent="1" source="J4jzHmCt1ID5oluIzcKl-22" target="J4jzHmCt1ID5oluIzcKl-10" edge="1">
          <mxGeometry width="50" height="50" relative="1" as="geometry">
            <mxPoint x="-10" y="560" as="sourcePoint" />
            <mxPoint x="40" y="510" as="targetPoint" />
          </mxGeometry>
        </mxCell>
        <mxCell id="J4jzHmCt1ID5oluIzcKl-24" value="tcp" style="edgeLabel;html=1;align=center;verticalAlign=middle;resizable=0;points=[];" parent="J4jzHmCt1ID5oluIzcKl-23" vertex="1" connectable="0">
          <mxGeometry x="0.0356" y="-2" relative="1" as="geometry">
            <mxPoint as="offset" />
          </mxGeometry>
        </mxCell>
        <mxCell id="J4jzHmCt1ID5oluIzcKl-25" value="" style="endArrow=none;html=1;rounded=0;entryX=0;entryY=0.5;entryDx=0;entryDy=0;exitX=0.75;exitY=0;exitDx=0;exitDy=0;" parent="1" source="J4jzHmCt1ID5oluIzcKl-8" target="J4jzHmCt1ID5oluIzcKl-22" edge="1">
          <mxGeometry width="50" height="50" relative="1" as="geometry">
            <mxPoint x="30" y="560" as="sourcePoint" />
            <mxPoint x="80" y="510" as="targetPoint" />
            <Array as="points">
              <mxPoint x="-190" y="370" />
            </Array>
          </mxGeometry>
        </mxCell>
        <mxCell id="J4jzHmCt1ID5oluIzcKl-26" value="tcp" style="edgeLabel;html=1;align=center;verticalAlign=middle;resizable=0;points=[];" parent="J4jzHmCt1ID5oluIzcKl-25" vertex="1" connectable="0">
          <mxGeometry x="-0.1143" y="-1" relative="1" as="geometry">
            <mxPoint x="40" y="-1" as="offset" />
          </mxGeometry>
        </mxCell>
        <mxCell id="J4jzHmCt1ID5oluIzcKl-27" value="" style="endArrow=none;html=1;rounded=0;entryX=0;entryY=0.5;entryDx=0;entryDy=0;exitX=1;exitY=0.75;exitDx=0;exitDy=0;" parent="1" source="J4jzHmCt1ID5oluIzcKl-22" target="J4jzHmCt1ID5oluIzcKl-12" edge="1">
          <mxGeometry width="50" height="50" relative="1" as="geometry">
            <mxPoint x="-10" y="560" as="sourcePoint" />
            <mxPoint x="40" y="510" as="targetPoint" />
          </mxGeometry>
        </mxCell>
        <mxCell id="J4jzHmCt1ID5oluIzcKl-28" value="tcp" style="edgeLabel;html=1;align=center;verticalAlign=middle;resizable=0;points=[];" parent="J4jzHmCt1ID5oluIzcKl-27" vertex="1" connectable="0">
          <mxGeometry x="-0.0301" y="1" relative="1" as="geometry">
            <mxPoint x="1" y="-3" as="offset" />
          </mxGeometry>
        </mxCell>
        <mxCell id="J4jzHmCt1ID5oluIzcKl-29" value="" style="fontColor=#0066CC;verticalAlign=top;verticalLabelPosition=bottom;labelPosition=center;align=center;html=1;outlineConnect=0;fillColor=#CCCCCC;strokeColor=#6881B3;gradientColor=none;gradientDirection=north;strokeWidth=2;shape=mxgraph.networks.phone_2;" parent="1" vertex="1">
          <mxGeometry x="-230" y="180" width="40" height="40" as="geometry" />
        </mxCell>
        <mxCell id="J4jzHmCt1ID5oluIzcKl-30" value="" style="fontColor=#0066CC;verticalAlign=top;verticalLabelPosition=bottom;labelPosition=center;align=center;html=1;outlineConnect=0;fillColor=#CCCCCC;strokeColor=#6881B3;gradientColor=none;gradientDirection=north;strokeWidth=2;shape=mxgraph.networks.terminal;" parent="1" vertex="1">
          <mxGeometry x="-70" y="180" width="40" height="40" as="geometry" />
        </mxCell>
        <mxCell id="J4jzHmCt1ID5oluIzcKl-31" value="" style="fontColor=#0066CC;verticalAlign=top;verticalLabelPosition=bottom;labelPosition=center;align=center;html=1;outlineConnect=0;fillColor=#CCCCCC;strokeColor=#6881B3;gradientColor=none;gradientDirection=north;strokeWidth=2;shape=mxgraph.networks.terminal;" parent="1" vertex="1">
          <mxGeometry x="-20" y="180" width="40" height="40" as="geometry" />
        </mxCell>
        <mxCell id="J4jzHmCt1ID5oluIzcKl-32" value="" style="fontColor=#0066CC;verticalAlign=top;verticalLabelPosition=bottom;labelPosition=center;align=center;html=1;outlineConnect=0;fillColor=#CCCCCC;strokeColor=#6881B3;gradientColor=none;gradientDirection=north;strokeWidth=2;shape=mxgraph.networks.terminal;" parent="1" vertex="1">
          <mxGeometry x="60" y="180" width="40" height="40" as="geometry" />
        </mxCell>
        <mxCell id="J4jzHmCt1ID5oluIzcKl-33" value="" style="fontColor=#0066CC;verticalAlign=top;verticalLabelPosition=bottom;labelPosition=center;align=center;html=1;outlineConnect=0;fillColor=#CCCCCC;strokeColor=#6881B3;gradientColor=none;gradientDirection=north;strokeWidth=2;shape=mxgraph.networks.phone_2;" parent="1" vertex="1">
          <mxGeometry x="-150" y="180" width="40" height="40" as="geometry" />
        </mxCell>
        <mxCell id="J4jzHmCt1ID5oluIzcKl-34" value="" style="fontColor=#0066CC;verticalAlign=top;verticalLabelPosition=bottom;labelPosition=center;align=center;html=1;outlineConnect=0;fillColor=#CCCCCC;strokeColor=#6881B3;gradientColor=none;gradientDirection=north;strokeWidth=2;shape=mxgraph.networks.phone_2;" parent="1" vertex="1">
          <mxGeometry x="-280" y="180" width="40" height="40" as="geometry" />
        </mxCell>
        <mxCell id="J4jzHmCt1ID5oluIzcKl-35" value="... ..." style="text;html=1;align=center;verticalAlign=middle;whiteSpace=wrap;rounded=0;" parent="1" vertex="1">
          <mxGeometry x="-200" y="190" width="60" height="30" as="geometry" />
        </mxCell>
        <mxCell id="J4jzHmCt1ID5oluIzcKl-36" value="... ..." style="text;html=1;align=center;verticalAlign=middle;whiteSpace=wrap;rounded=0;" parent="1" vertex="1">
          <mxGeometry x="10" y="185" width="60" height="30" as="geometry" />
        </mxCell>
        <mxCell id="J4jzHmCt1ID5oluIzcKl-37" value="机器人外呼服务" style="rounded=0;whiteSpace=wrap;html=1;fillColor=#ffcd28;gradientColor=#ffa500;strokeColor=none;" parent="1" vertex="1">
          <mxGeometry x="40" y="440" width="120" height="40" as="geometry" />
        </mxCell>
        <mxCell id="J4jzHmCt1ID5oluIzcKl-38" value="" style="endArrow=none;dashed=1;html=1;strokeWidth=2;rounded=0;exitX=0.25;exitY=0;exitDx=0;exitDy=0;entryX=0.5;entryY=1;entryDx=0;entryDy=0;" parent="1" source="J4jzHmCt1ID5oluIzcKl-8" target="J4jzHmCt1ID5oluIzcKl-7" edge="1">
          <mxGeometry width="50" height="50" relative="1" as="geometry">
            <mxPoint x="-120" y="400" as="sourcePoint" />
            <mxPoint x="-200" y="250" as="targetPoint" />
            <Array as="points">
              <mxPoint x="-250" y="280" />
              <mxPoint x="-195" y="280" />
            </Array>
          </mxGeometry>
        </mxCell>
        <mxCell id="J4jzHmCt1ID5oluIzcKl-39" value="" style="endArrow=none;dashed=1;html=1;strokeWidth=2;rounded=0;entryX=0.5;entryY=1;entryDx=0;entryDy=0;exitX=0.25;exitY=0;exitDx=0;exitDy=0;" parent="1" source="J4jzHmCt1ID5oluIzcKl-8" target="J4jzHmCt1ID5oluIzcKl-6" edge="1">
          <mxGeometry width="50" height="50" relative="1" as="geometry">
            <mxPoint x="-120" y="400" as="sourcePoint" />
            <mxPoint x="-70" y="350" as="targetPoint" />
            <Array as="points">
              <mxPoint x="-250" y="280" />
              <mxPoint x="15" y="280" />
            </Array>
          </mxGeometry>
        </mxCell>
        <mxCell id="J4jzHmCt1ID5oluIzcKl-40" value="sip/rtp" style="edgeLabel;html=1;align=center;verticalAlign=middle;resizable=0;points=[];" parent="J4jzHmCt1ID5oluIzcKl-39" vertex="1" connectable="0">
          <mxGeometry x="-0.2835" relative="1" as="geometry">
            <mxPoint y="-21" as="offset" />
          </mxGeometry>
        </mxCell>
        <mxCell id="J4jzHmCt1ID5oluIzcKl-41" value="" style="fontColor=#0066CC;verticalAlign=top;verticalLabelPosition=bottom;labelPosition=center;align=center;html=1;outlineConnect=0;fillColor=#CCCCCC;strokeColor=#6881B3;gradientColor=none;gradientDirection=north;strokeWidth=2;shape=mxgraph.networks.mobile;" parent="1" vertex="1">
          <mxGeometry x="-680" y="150" width="30" height="50" as="geometry" />
        </mxCell>
        <mxCell id="J4jzHmCt1ID5oluIzcKl-42" value="" style="fontColor=#0066CC;verticalAlign=top;verticalLabelPosition=bottom;labelPosition=center;align=center;html=1;outlineConnect=0;fillColor=#CCCCCC;strokeColor=#6881B3;gradientColor=none;gradientDirection=north;strokeWidth=2;shape=mxgraph.networks.mobile;" parent="1" vertex="1">
          <mxGeometry x="-550" y="150" width="30" height="50" as="geometry" />
        </mxCell>
        <mxCell id="J4jzHmCt1ID5oluIzcKl-43" value="" style="fontColor=#0066CC;verticalAlign=top;verticalLabelPosition=bottom;labelPosition=center;align=center;html=1;outlineConnect=0;fillColor=#CCCCCC;strokeColor=#6881B3;gradientColor=none;gradientDirection=north;strokeWidth=2;shape=mxgraph.networks.mobile;" parent="1" vertex="1">
          <mxGeometry x="-630" y="150" width="30" height="50" as="geometry" />
        </mxCell>
        <mxCell id="J4jzHmCt1ID5oluIzcKl-44" value="Web 接入服务" style="rounded=0;whiteSpace=wrap;html=1;fillColor=#f8cecc;gradientColor=#ea6b66;strokeColor=none;" parent="1" vertex="1">
          <mxGeometry x="370" y="390" width="110" height="20" as="geometry" />
        </mxCell>
        <mxCell id="J4jzHmCt1ID5oluIzcKl-45" value="微信 接入服务" style="rounded=0;whiteSpace=wrap;html=1;fillColor=#f8cecc;gradientColor=#ea6b66;strokeColor=none;" parent="1" vertex="1">
          <mxGeometry x="370" y="410" width="110" height="20" as="geometry" />
        </mxCell>
        <mxCell id="J4jzHmCt1ID5oluIzcKl-46" value="&lt;div data-docx-has-block-data=&quot;false&quot; data-lark-html-role=&quot;root&quot; data-page-id=&quot;DVTsdG8ZdoMMFxxIV2Lc9iPWn9b&quot;&gt;&lt;div class=&quot;old-record-id-I75Nd4EcmotC9BxabJZcAsvInZ5&quot;&gt;whatsapp 接入&lt;span style=&quot;background-color: transparent; color: light-dark(rgb(0, 0, 0), rgb(255, 255, 255));&quot;&gt;服务&lt;/span&gt;&lt;/div&gt;&lt;/div&gt;" style="rounded=0;whiteSpace=wrap;html=1;fillColor=#f8cecc;gradientColor=#ea6b66;strokeColor=none;" parent="1" vertex="1">
          <mxGeometry x="370" y="430" width="110" height="20" as="geometry" />
        </mxCell>
        <mxCell id="J4jzHmCt1ID5oluIzcKl-47" value="&lt;div data-docx-has-block-data=&quot;false&quot; data-lark-html-role=&quot;root&quot; data-page-id=&quot;DVTsdG8ZdoMMFxxIV2Lc9iPWn9b&quot;&gt;&lt;div class=&quot;old-record-id-I75Nd4EcmotC9BxabJZcAsvInZ5&quot;&gt;··· ···&lt;/div&gt;&lt;/div&gt;" style="rounded=0;whiteSpace=wrap;html=1;fillColor=#f8cecc;gradientColor=#ea6b66;strokeColor=none;" parent="1" vertex="1">
          <mxGeometry x="370" y="450" width="110" height="20" as="geometry" />
        </mxCell>
        <mxCell id="J4jzHmCt1ID5oluIzcKl-48" value="公共互联网" style="ellipse;shape=cloud;whiteSpace=wrap;html=1;shadow=1;" parent="1" vertex="1">
          <mxGeometry x="580" y="380" width="120" height="80" as="geometry" />
        </mxCell>
        <mxCell id="J4jzHmCt1ID5oluIzcKl-49" value="" style="endArrow=none;html=1;rounded=0;entryX=0;entryY=0.75;entryDx=0;entryDy=0;exitX=0.75;exitY=0;exitDx=0;exitDy=0;" parent="1" source="J4jzHmCt1ID5oluIzcKl-2" target="J4jzHmCt1ID5oluIzcKl-5" edge="1">
          <mxGeometry width="50" height="50" relative="1" as="geometry">
            <mxPoint x="190" y="470" as="sourcePoint" />
            <mxPoint x="150" y="430" as="targetPoint" />
            <Array as="points">
              <mxPoint x="230" y="450" />
              <mxPoint x="260" y="450" />
            </Array>
          </mxGeometry>
        </mxCell>
        <mxCell id="J4jzHmCt1ID5oluIzcKl-50" value="tcp" style="edgeLabel;html=1;align=center;verticalAlign=middle;resizable=0;points=[];" parent="J4jzHmCt1ID5oluIzcKl-49" vertex="1" connectable="0">
          <mxGeometry x="0.05" relative="1" as="geometry">
            <mxPoint y="18" as="offset" />
          </mxGeometry>
        </mxCell>
        <mxCell id="J4jzHmCt1ID5oluIzcKl-51" value="用户 客户端应用" style="rounded=0;whiteSpace=wrap;html=1;verticalAlign=top;fillColor=#f5f5f5;fontColor=#333333;strokeColor=none;shadow=1;" parent="1" vertex="1">
          <mxGeometry x="540" y="120" width="200" height="90" as="geometry" />
        </mxCell>
        <mxCell id="J4jzHmCt1ID5oluIzcKl-52" value="H5" style="whiteSpace=wrap;html=1;aspect=fixed;" parent="1" vertex="1">
          <mxGeometry x="555" y="150" width="40" height="40" as="geometry" />
        </mxCell>
        <mxCell id="J4jzHmCt1ID5oluIzcKl-53" value="微信" style="whiteSpace=wrap;html=1;aspect=fixed;" parent="1" vertex="1">
          <mxGeometry x="605" y="150" width="40" height="40" as="geometry" />
        </mxCell>
        <mxCell id="J4jzHmCt1ID5oluIzcKl-54" value="whats&lt;div&gt;app&lt;/div&gt;" style="whiteSpace=wrap;html=1;aspect=fixed;" parent="1" vertex="1">
          <mxGeometry x="655" y="150" width="40" height="40" as="geometry" />
        </mxCell>
        <mxCell id="J4jzHmCt1ID5oluIzcKl-55" value="" style="endArrow=none;html=1;rounded=0;entryX=0.5;entryY=1;entryDx=0;entryDy=0;exitX=0.4;exitY=0.1;exitDx=0;exitDy=0;exitPerimeter=0;" parent="1" source="J4jzHmCt1ID5oluIzcKl-48" target="J4jzHmCt1ID5oluIzcKl-51" edge="1">
          <mxGeometry width="50" height="50" relative="1" as="geometry">
            <mxPoint x="608" y="390" as="sourcePoint" />
            <mxPoint x="110" y="380" as="targetPoint" />
          </mxGeometry>
        </mxCell>
        <mxCell id="J4jzHmCt1ID5oluIzcKl-56" value="" style="endArrow=none;html=1;rounded=0;exitX=1;exitY=0.5;exitDx=0;exitDy=0;entryX=0.057;entryY=0.498;entryDx=0;entryDy=0;entryPerimeter=0;" parent="1" source="J4jzHmCt1ID5oluIzcKl-5" target="J4jzHmCt1ID5oluIzcKl-48" edge="1">
          <mxGeometry width="50" height="50" relative="1" as="geometry">
            <mxPoint x="530" y="400" as="sourcePoint" />
            <mxPoint x="580" y="350" as="targetPoint" />
          </mxGeometry>
        </mxCell>
        <mxCell id="J4jzHmCt1ID5oluIzcKl-57" value="tcp/udp" style="edgeLabel;html=1;align=center;verticalAlign=middle;resizable=0;points=[];" parent="J4jzHmCt1ID5oluIzcKl-56" vertex="1" connectable="0">
          <mxGeometry x="0.1096" relative="1" as="geometry">
            <mxPoint as="offset" />
          </mxGeometry>
        </mxCell>
        <mxCell id="J4jzHmCt1ID5oluIzcKl-58" value="语音网关设备" style="fontColor=#0066CC;verticalAlign=top;verticalLabelPosition=bottom;labelPosition=center;align=center;html=1;outlineConnect=0;fillColor=#CCCCCC;strokeColor=#6881B3;gradientColor=none;gradientDirection=north;strokeWidth=2;shape=mxgraph.networks.router;" parent="1" vertex="1">
          <mxGeometry x="-430" y="445" width="100" height="30" as="geometry" />
        </mxCell>
        <mxCell id="J4jzHmCt1ID5oluIzcKl-59" value="... ..." style="text;html=1;align=center;verticalAlign=middle;whiteSpace=wrap;rounded=0;" parent="1" vertex="1">
          <mxGeometry x="-610" y="170" width="60" height="30" as="geometry" />
        </mxCell>
        <mxCell id="J4jzHmCt1ID5oluIzcKl-60" value="" style="endArrow=none;dashed=1;html=1;strokeWidth=2;rounded=0;entryX=0.5;entryY=1;entryDx=0;entryDy=0;exitX=0.4;exitY=0.1;exitDx=0;exitDy=0;exitPerimeter=0;" parent="1" source="J4jzHmCt1ID5oluIzcKl-19" target="J4jzHmCt1ID5oluIzcKl-4" edge="1">
          <mxGeometry width="50" height="50" relative="1" as="geometry">
            <mxPoint x="-330" y="340" as="sourcePoint" />
            <mxPoint x="-280" y="290" as="targetPoint" />
          </mxGeometry>
        </mxCell>
        <mxCell id="J4jzHmCt1ID5oluIzcKl-61" value="" style="endArrow=none;dashed=1;html=1;strokeWidth=2;rounded=0;exitX=0.875;exitY=0.5;exitDx=0;exitDy=0;exitPerimeter=0;entryX=0;entryY=0.5;entryDx=0;entryDy=0;entryPerimeter=0;" parent="1" source="J4jzHmCt1ID5oluIzcKl-19" target="J4jzHmCt1ID5oluIzcKl-58" edge="1">
          <mxGeometry width="50" height="50" relative="1" as="geometry">
            <mxPoint x="-330" y="340" as="sourcePoint" />
            <mxPoint x="-280" y="290" as="targetPoint" />
          </mxGeometry>
        </mxCell>
        <mxCell id="J4jzHmCt1ID5oluIzcKl-62" value="... ..." style="text;html=1;align=center;verticalAlign=middle;whiteSpace=wrap;rounded=0;" parent="1" vertex="1">
          <mxGeometry x="690" y="160" width="50" height="30" as="geometry" />
        </mxCell>
        <mxCell id="J4jzHmCt1ID5oluIzcKl-63" value="Voice Agent" style="rounded=0;whiteSpace=wrap;html=1;fillColor=#dae8fc;gradientColor=#7ea6e0;strokeColor=none;" parent="1" vertex="1">
          <mxGeometry x="40" y="679" width="120" height="40" as="geometry" />
        </mxCell>
        <mxCell id="J4jzHmCt1ID5oluIzcKl-64" value="" style="endArrow=none;html=1;rounded=0;entryX=0.5;entryY=1;entryDx=0;entryDy=0;exitX=0.5;exitY=0;exitDx=0;exitDy=0;" parent="1" source="J4jzHmCt1ID5oluIzcKl-63" target="J4jzHmCt1ID5oluIzcKl-11" edge="1">
          <mxGeometry width="50" height="50" relative="1" as="geometry">
            <mxPoint x="110" y="519" as="sourcePoint" />
            <mxPoint x="160" y="469" as="targetPoint" />
          </mxGeometry>
        </mxCell>
        <mxCell id="J4jzHmCt1ID5oluIzcKl-65" value="tcp" style="edgeLabel;html=1;align=center;verticalAlign=middle;resizable=0;points=[];" parent="J4jzHmCt1ID5oluIzcKl-64" vertex="1" connectable="0">
          <mxGeometry x="-0.3" y="-1" relative="1" as="geometry">
            <mxPoint as="offset" />
          </mxGeometry>
        </mxCell>
        <mxCell id="J4jzHmCt1ID5oluIzcKl-66" value="语音服务" style="rounded=0;whiteSpace=wrap;html=1;fillColor=#d5e8d4;gradientColor=#97d077;strokeColor=none;" parent="1" vertex="1">
          <mxGeometry x="200" y="165" width="120" height="20" as="geometry" />
        </mxCell>
        <mxCell id="J4jzHmCt1ID5oluIzcKl-67" value="适配服务" style="rounded=0;whiteSpace=wrap;html=1;fillColor=#f8cecc;gradientColor=#ea6b66;strokeColor=none;" parent="1" vertex="1">
          <mxGeometry x="200" y="185" width="120" height="20" as="geometry" />
        </mxCell>
        <mxCell id="J4jzHmCt1ID5oluIzcKl-68" value="业务服务" style="rounded=0;whiteSpace=wrap;html=1;fillColor=#ffcd28;gradientColor=#ffa500;strokeColor=none;" parent="1" vertex="1">
          <mxGeometry x="200" y="205" width="120" height="20" as="geometry" />
        </mxCell>
        <mxCell id="J4jzHmCt1ID5oluIzcKl-69" value="Agent服务" style="rounded=0;whiteSpace=wrap;html=1;fillColor=#dae8fc;gradientColor=#7ea6e0;strokeColor=none;" parent="1" vertex="1">
          <mxGeometry x="200" y="225" width="120" height="20" as="geometry" />
        </mxCell>
        <mxCell id="J4jzHmCt1ID5oluIzcKl-70" value="" style="endArrow=none;dashed=1;html=1;strokeWidth=2;rounded=0;" parent="1" edge="1">
          <mxGeometry width="50" height="50" relative="1" as="geometry">
            <mxPoint x="360" y="185" as="sourcePoint" />
            <mxPoint x="480" y="185" as="targetPoint" />
          </mxGeometry>
        </mxCell>
        <mxCell id="J4jzHmCt1ID5oluIzcKl-71" value="信令/语音流" style="edgeLabel;html=1;align=center;verticalAlign=middle;resizable=0;points=[];" parent="J4jzHmCt1ID5oluIzcKl-70" vertex="1" connectable="0">
          <mxGeometry x="0.0798" y="1" relative="1" as="geometry">
            <mxPoint y="1" as="offset" />
          </mxGeometry>
        </mxCell>
        <mxCell id="J4jzHmCt1ID5oluIzcKl-72" value="" style="endArrow=none;html=1;strokeWidth=2;rounded=0;" parent="1" edge="1">
          <mxGeometry width="50" height="50" relative="1" as="geometry">
            <mxPoint x="360" y="214.47000000000003" as="sourcePoint" />
            <mxPoint x="480" y="214.47000000000003" as="targetPoint" />
          </mxGeometry>
        </mxCell>
        <mxCell id="J4jzHmCt1ID5oluIzcKl-73" value="业务数据/接口" style="edgeLabel;html=1;align=center;verticalAlign=middle;resizable=0;points=[];" parent="J4jzHmCt1ID5oluIzcKl-72" vertex="1" connectable="0">
          <mxGeometry x="0.0798" y="1" relative="1" as="geometry">
            <mxPoint as="offset" />
          </mxGeometry>
        </mxCell>
        <mxCell id="J4jzHmCt1ID5oluIzcKl-74" value="ASR 服务" style="rounded=0;whiteSpace=wrap;html=1;fillColor=#dae8fc;gradientColor=#7ea6e0;strokeColor=none;" parent="1" vertex="1">
          <mxGeometry x="-120" y="639" width="120" height="40" as="geometry" />
        </mxCell>
        <mxCell id="J4jzHmCt1ID5oluIzcKl-75" value="Text Agent" style="rounded=0;whiteSpace=wrap;html=1;fillColor=#dae8fc;gradientColor=#7ea6e0;strokeColor=none;" parent="1" vertex="1">
          <mxGeometry x="200" y="639" width="120" height="40" as="geometry" />
        </mxCell>
        <mxCell id="J4jzHmCt1ID5oluIzcKl-76" value="" style="endArrow=none;html=1;rounded=0;entryX=0;entryY=0.5;entryDx=0;entryDy=0;exitX=1;exitY=0.25;exitDx=0;exitDy=0;" parent="1" source="J4jzHmCt1ID5oluIzcKl-63" target="J4jzHmCt1ID5oluIzcKl-75" edge="1">
          <mxGeometry width="50" height="50" relative="1" as="geometry">
            <mxPoint x="190" y="679" as="sourcePoint" />
            <mxPoint x="240" y="629" as="targetPoint" />
          </mxGeometry>
        </mxCell>
        <mxCell id="J4jzHmCt1ID5oluIzcKl-77" value="tcp" style="edgeLabel;html=1;align=center;verticalAlign=middle;resizable=0;points=[];" parent="J4jzHmCt1ID5oluIzcKl-76" vertex="1" connectable="0">
          <mxGeometry x="0.024" y="-1" relative="1" as="geometry">
            <mxPoint as="offset" />
          </mxGeometry>
        </mxCell>
        <mxCell id="J4jzHmCt1ID5oluIzcKl-78" value="" style="endArrow=none;html=1;rounded=0;entryX=0;entryY=0.75;entryDx=0;entryDy=0;exitX=1;exitY=0.5;exitDx=0;exitDy=0;" parent="1" source="J4jzHmCt1ID5oluIzcKl-91" target="J4jzHmCt1ID5oluIzcKl-63" edge="1">
          <mxGeometry width="50" height="50" relative="1" as="geometry">
            <mxPoint x="200" y="739" as="sourcePoint" />
            <mxPoint x="50" y="739" as="targetPoint" />
          </mxGeometry>
        </mxCell>
        <mxCell id="J4jzHmCt1ID5oluIzcKl-79" value="tcp" style="edgeLabel;html=1;align=center;verticalAlign=middle;resizable=0;points=[];" parent="J4jzHmCt1ID5oluIzcKl-78" vertex="1" connectable="0">
          <mxGeometry x="0.112" relative="1" as="geometry">
            <mxPoint as="offset" />
          </mxGeometry>
        </mxCell>
        <mxCell id="J4jzHmCt1ID5oluIzcKl-80" value="" style="endArrow=none;html=1;rounded=0;entryX=1;entryY=0.5;entryDx=0;entryDy=0;exitX=0;exitY=0.25;exitDx=0;exitDy=0;" parent="1" source="J4jzHmCt1ID5oluIzcKl-63" target="J4jzHmCt1ID5oluIzcKl-74" edge="1">
          <mxGeometry width="50" height="50" relative="1" as="geometry">
            <mxPoint x="10" y="769" as="sourcePoint" />
            <mxPoint x="240" y="629" as="targetPoint" />
          </mxGeometry>
        </mxCell>
        <mxCell id="J4jzHmCt1ID5oluIzcKl-81" value="tcp" style="edgeLabel;html=1;align=center;verticalAlign=middle;resizable=0;points=[];" parent="J4jzHmCt1ID5oluIzcKl-80" vertex="1" connectable="0">
          <mxGeometry x="-0.1354" y="1" relative="1" as="geometry">
            <mxPoint x="-3" as="offset" />
          </mxGeometry>
        </mxCell>
        <mxCell id="J4jzHmCt1ID5oluIzcKl-82" value="公共互联网" style="ellipse;shape=cloud;whiteSpace=wrap;html=1;shadow=1;" parent="1" vertex="1">
          <mxGeometry x="580" y="740" width="120" height="80" as="geometry" />
        </mxCell>
        <mxCell id="J4jzHmCt1ID5oluIzcKl-83" value="" style="endArrow=none;html=1;rounded=0;entryX=0.5;entryY=1;entryDx=0;entryDy=0;" parent="1" source="J4jzHmCt1ID5oluIzcKl-82" target="J4jzHmCt1ID5oluIzcKl-63" edge="1">
          <mxGeometry width="50" height="50" relative="1" as="geometry">
            <mxPoint x="570" y="760" as="sourcePoint" />
            <mxPoint x="340" y="680" as="targetPoint" />
            <Array as="points">
              <mxPoint x="100" y="780" />
            </Array>
          </mxGeometry>
        </mxCell>
        <mxCell id="J4jzHmCt1ID5oluIzcKl-84" value="tcp/udp" style="edgeLabel;html=1;align=center;verticalAlign=middle;resizable=0;points=[];" parent="J4jzHmCt1ID5oluIzcKl-83" vertex="1" connectable="0">
          <mxGeometry x="-0.2724" y="1" relative="1" as="geometry">
            <mxPoint as="offset" />
          </mxGeometry>
        </mxCell>
        <mxCell id="J4jzHmCt1ID5oluIzcKl-85" value="&lt;b&gt;三方 STT/TTS&lt;/b&gt;" style="rounded=0;whiteSpace=wrap;html=1;verticalAlign=top;fillColor=#f5f5f5;fontColor=#333333;strokeColor=none;fontSize=12;shadow=1;" parent="1" vertex="1">
          <mxGeometry x="575" y="520" width="130" height="120" as="geometry" />
        </mxCell>
        <mxCell id="J4jzHmCt1ID5oluIzcKl-86" value="讯飞" style="rounded=0;whiteSpace=wrap;html=1;" parent="1" vertex="1">
          <mxGeometry x="585" y="550" width="110" height="20" as="geometry" />
        </mxCell>
        <mxCell id="J4jzHmCt1ID5oluIzcKl-87" value="腾讯" style="rounded=0;whiteSpace=wrap;html=1;" parent="1" vertex="1">
          <mxGeometry x="585" y="570" width="110" height="20" as="geometry" />
        </mxCell>
        <mxCell id="J4jzHmCt1ID5oluIzcKl-88" value="&lt;div data-docx-has-block-data=&quot;false&quot; data-lark-html-role=&quot;root&quot; data-page-id=&quot;DVTsdG8ZdoMMFxxIV2Lc9iPWn9b&quot;&gt;&lt;div class=&quot;old-record-id-I75Nd4EcmotC9BxabJZcAsvInZ5&quot;&gt;微软&lt;/div&gt;&lt;/div&gt;" style="rounded=0;whiteSpace=wrap;html=1;" parent="1" vertex="1">
          <mxGeometry x="585" y="590" width="110" height="20" as="geometry" />
        </mxCell>
        <mxCell id="J4jzHmCt1ID5oluIzcKl-89" value="&lt;div data-docx-has-block-data=&quot;false&quot; data-lark-html-role=&quot;root&quot; data-page-id=&quot;DVTsdG8ZdoMMFxxIV2Lc9iPWn9b&quot;&gt;&lt;div class=&quot;old-record-id-I75Nd4EcmotC9BxabJZcAsvInZ5&quot;&gt;··· ···&lt;/div&gt;&lt;/div&gt;" style="rounded=0;whiteSpace=wrap;html=1;" parent="1" vertex="1">
          <mxGeometry x="585" y="610" width="110" height="20" as="geometry" />
        </mxCell>
        <mxCell id="J4jzHmCt1ID5oluIzcKl-90" value="" style="endArrow=none;html=1;rounded=0;entryX=0.5;entryY=1;entryDx=0;entryDy=0;exitX=0.4;exitY=0.1;exitDx=0;exitDy=0;exitPerimeter=0;" parent="1" source="J4jzHmCt1ID5oluIzcKl-82" target="J4jzHmCt1ID5oluIzcKl-85" edge="1">
          <mxGeometry width="50" height="50" relative="1" as="geometry">
            <mxPoint x="540" y="720" as="sourcePoint" />
            <mxPoint x="590" y="670" as="targetPoint" />
          </mxGeometry>
        </mxCell>
        <mxCell id="J4jzHmCt1ID5oluIzcKl-91" value="TTS 服务" style="rounded=0;whiteSpace=wrap;html=1;fillColor=#dae8fc;gradientColor=#7ea6e0;strokeColor=none;" parent="1" vertex="1">
          <mxGeometry x="-120" y="719" width="120" height="40" as="geometry" />
        </mxCell>
        <mxCell id="J4jzHmCt1ID5oluIzcKl-92" value="LLM 服务" style="rounded=0;whiteSpace=wrap;html=1;fillColor=#dae8fc;gradientColor=#7ea6e0;strokeColor=none;" parent="1" vertex="1">
          <mxGeometry x="200" y="719" width="120" height="40" as="geometry" />
        </mxCell>
        <mxCell id="J4jzHmCt1ID5oluIzcKl-93" value="" style="endArrow=none;html=1;rounded=0;entryX=0.5;entryY=1;entryDx=0;entryDy=0;exitX=0.5;exitY=0;exitDx=0;exitDy=0;" parent="1" source="J4jzHmCt1ID5oluIzcKl-92" target="J4jzHmCt1ID5oluIzcKl-75" edge="1">
          <mxGeometry width="50" height="50" relative="1" as="geometry">
            <mxPoint x="170" y="699" as="sourcePoint" />
            <mxPoint x="210" y="669" as="targetPoint" />
          </mxGeometry>
        </mxCell>
        <mxCell id="J4jzHmCt1ID5oluIzcKl-94" value="tcp" style="edgeLabel;html=1;align=center;verticalAlign=middle;resizable=0;points=[];" parent="J4jzHmCt1ID5oluIzcKl-93" vertex="1" connectable="0">
          <mxGeometry x="0.024" y="-1" relative="1" as="geometry">
            <mxPoint as="offset" />
          </mxGeometry>
        </mxCell>
        <mxCell id="J4jzHmCt1ID5oluIzcKl-95" value="Agent运营配置服务" style="rounded=0;whiteSpace=wrap;html=1;fillColor=#fff2cc;gradientColor=#ffd966;strokeColor=none;" parent="1" vertex="1">
          <mxGeometry x="200" y="559" width="120" height="40" as="geometry" />
        </mxCell>
        <mxCell id="J4jzHmCt1ID5oluIzcKl-96" value="统一账号及权限" style="rounded=0;whiteSpace=wrap;html=1;fillColor=#fff2cc;gradientColor=#ffd966;strokeColor=none;" parent="1" vertex="1">
          <mxGeometry x="-440" y="599" width="120" height="40" as="geometry" />
        </mxCell>
        <mxCell id="J4jzHmCt1ID5oluIzcKl-97" value="运维与运营系统" style="rounded=0;whiteSpace=wrap;html=1;fillColor=#fff2cc;gradientColor=#ffd966;strokeColor=none;" parent="1" vertex="1">
          <mxGeometry x="-440" y="679" width="120" height="40" as="geometry" />
        </mxCell>
      </root>
    </mxGraphModel>
  </diagram>
  <diagram id="m9kwv_cUTrgT_nNOxfFC" name="VA 视角的语音系统架构">
    <mxGraphModel dx="2027" dy="880" grid="1" gridSize="10" guides="1" tooltips="1" connect="1" arrows="1" fold="1" page="1" pageScale="1" pageWidth="827" pageHeight="1169" math="0" shadow="0">
      <root>
        <mxCell id="0" />
        <mxCell id="1" parent="0" />
        <mxCell id="s2Oo6yJtSZi4fsD_IYPC-123" value="" style="rounded=1;whiteSpace=wrap;html=1;sketch=1;curveFitting=1;jiggle=2;shadow=1;dashed=1;" parent="1" vertex="1">
          <mxGeometry x="480" y="640" width="120" height="80" as="geometry" />
        </mxCell>
        <mxCell id="s2Oo6yJtSZi4fsD_IYPC-103" value="人工坐席" style="rounded=0;whiteSpace=wrap;html=1;fontStyle=1;verticalAlign=top;fontSize=14;" parent="1" vertex="1">
          <mxGeometry x="130" y="722" width="200" height="80" as="geometry" />
        </mxCell>
        <mxCell id="3jVxFx188HEy8NwxxD-2-1" value="VA SIP 代理" style="rounded=0;whiteSpace=wrap;html=1;fontStyle=1;fontSize=14;fillColor=#d5e8d4;strokeColor=#82b366;gradientColor=#97d077;" parent="1" vertex="1">
          <mxGeometry x="120" y="160" width="120" height="40" as="geometry" />
        </mxCell>
        <mxCell id="3jVxFx188HEy8NwxxD-2-2" value="VA 核心服务" style="rounded=0;whiteSpace=wrap;html=1;verticalAlign=top;fontStyle=1;fontSize=14;fillColor=#fff2cc;strokeColor=#d6b656;gradientColor=#ffd966;" parent="1" vertex="1">
          <mxGeometry x="320" y="80" width="120" height="200" as="geometry" />
        </mxCell>
        <mxCell id="s2Oo6yJtSZi4fsD_IYPC-47" style="edgeStyle=orthogonalEdgeStyle;rounded=0;orthogonalLoop=1;jettySize=auto;html=1;exitX=0.25;exitY=1;exitDx=0;exitDy=0;" parent="1" source="s2Oo6yJtSZi4fsD_IYPC-1" target="s2Oo6yJtSZi4fsD_IYPC-4" edge="1">
          <mxGeometry relative="1" as="geometry" />
        </mxCell>
        <mxCell id="s2Oo6yJtSZi4fsD_IYPC-48" value="发起转人工" style="edgeLabel;html=1;align=center;verticalAlign=middle;resizable=0;points=[];" parent="s2Oo6yJtSZi4fsD_IYPC-47" vertex="1" connectable="0">
          <mxGeometry x="0.5286" relative="1" as="geometry">
            <mxPoint y="-2" as="offset" />
          </mxGeometry>
        </mxCell>
        <mxCell id="s2Oo6yJtSZi4fsD_IYPC-77" style="edgeStyle=orthogonalEdgeStyle;rounded=0;orthogonalLoop=1;jettySize=auto;html=1;exitX=0.75;exitY=1;exitDx=0;exitDy=0;" parent="1" source="s2Oo6yJtSZi4fsD_IYPC-1" target="s2Oo6yJtSZi4fsD_IYPC-50" edge="1">
          <mxGeometry relative="1" as="geometry" />
        </mxCell>
        <mxCell id="s2Oo6yJtSZi4fsD_IYPC-78" value="流程读取" style="edgeLabel;html=1;align=center;verticalAlign=middle;resizable=0;points=[];" parent="s2Oo6yJtSZi4fsD_IYPC-77" vertex="1" connectable="0">
          <mxGeometry x="0.5067" relative="1" as="geometry">
            <mxPoint y="7" as="offset" />
          </mxGeometry>
        </mxCell>
        <mxCell id="s2Oo6yJtSZi4fsD_IYPC-1" value="Agent" style="rounded=0;whiteSpace=wrap;html=1;verticalAlign=top;fontStyle=1;fontSize=14;fillColor=#fff2cc;strokeColor=#d6b656;gradientColor=#ffd966;" parent="1" vertex="1">
          <mxGeometry x="520" y="80" width="240" height="200" as="geometry" />
        </mxCell>
        <mxCell id="s2Oo6yJtSZi4fsD_IYPC-57" style="edgeStyle=orthogonalEdgeStyle;rounded=0;orthogonalLoop=1;jettySize=auto;html=1;entryX=0;entryY=0.25;entryDx=0;entryDy=0;exitX=1.009;exitY=0.454;exitDx=0;exitDy=0;exitPerimeter=0;" parent="1" source="s2Oo6yJtSZi4fsD_IYPC-2" target="s2Oo6yJtSZi4fsD_IYPC-3" edge="1">
          <mxGeometry relative="1" as="geometry" />
        </mxCell>
        <mxCell id="s2Oo6yJtSZi4fsD_IYPC-58" value="监听20000001的呼入&lt;div&gt;（消息：通道创建）&lt;/div&gt;" style="edgeLabel;html=1;align=center;verticalAlign=middle;resizable=0;points=[];" parent="s2Oo6yJtSZi4fsD_IYPC-57" vertex="1" connectable="0">
          <mxGeometry x="0.0588" relative="1" as="geometry">
            <mxPoint x="-6" y="-20" as="offset" />
          </mxGeometry>
        </mxCell>
        <mxCell id="s2Oo6yJtSZi4fsD_IYPC-93" style="edgeStyle=orthogonalEdgeStyle;rounded=0;orthogonalLoop=1;jettySize=auto;html=1;entryX=0.5;entryY=1;entryDx=0;entryDy=0;exitX=0.5;exitY=0;exitDx=0;exitDy=0;" parent="1" source="s2Oo6yJtSZi4fsD_IYPC-2" target="3jVxFx188HEy8NwxxD-2-1" edge="1">
          <mxGeometry relative="1" as="geometry" />
        </mxCell>
        <mxCell id="s2Oo6yJtSZi4fsD_IYPC-94" value="sip 协商" style="edgeLabel;html=1;align=center;verticalAlign=middle;resizable=0;points=[];" parent="s2Oo6yJtSZi4fsD_IYPC-93" vertex="1" connectable="0">
          <mxGeometry x="0.2125" relative="1" as="geometry">
            <mxPoint y="57" as="offset" />
          </mxGeometry>
        </mxCell>
        <mxCell id="s2Oo6yJtSZi4fsD_IYPC-2" value="FreeSWITCH" style="rounded=0;whiteSpace=wrap;html=1;verticalAlign=top;fontStyle=1;fontSize=14;fillColor=#fff2cc;strokeColor=#d6b656;gradientColor=#ffd966;" parent="1" vertex="1">
          <mxGeometry x="120" y="400" width="120" height="200" as="geometry" />
        </mxCell>
        <mxCell id="s2Oo6yJtSZi4fsD_IYPC-3" value="&lt;font style=&quot;font-size: 14px;&quot;&gt;&lt;b&gt;CTI&lt;/b&gt;&lt;/font&gt;&lt;div&gt;分配坐席&lt;/div&gt;" style="rounded=0;whiteSpace=wrap;html=1;fillColor=#fff2cc;strokeColor=#d6b656;gradientColor=#ffd966;" parent="1" vertex="1">
          <mxGeometry x="480" y="480" width="120" height="40" as="geometry" />
        </mxCell>
        <mxCell id="s2Oo6yJtSZi4fsD_IYPC-54" style="edgeStyle=orthogonalEdgeStyle;rounded=0;orthogonalLoop=1;jettySize=auto;html=1;entryX=1;entryY=0.1;entryDx=0;entryDy=0;entryPerimeter=0;" parent="1" source="s2Oo6yJtSZi4fsD_IYPC-4" target="s2Oo6yJtSZi4fsD_IYPC-2" edge="1">
          <mxGeometry relative="1" as="geometry">
            <mxPoint x="360" y="440" as="targetPoint" />
          </mxGeometry>
        </mxCell>
        <mxCell id="s2Oo6yJtSZi4fsD_IYPC-55" value="发起呼叫2000001" style="edgeLabel;html=1;align=center;verticalAlign=middle;resizable=0;points=[];" parent="s2Oo6yJtSZi4fsD_IYPC-54" vertex="1" connectable="0">
          <mxGeometry x="-0.2087" y="-2" relative="1" as="geometry">
            <mxPoint x="-21" y="-8" as="offset" />
          </mxGeometry>
        </mxCell>
        <mxCell id="s2Oo6yJtSZi4fsD_IYPC-4" value="CC Robot" style="rounded=0;whiteSpace=wrap;html=1;fontSize=14;fontStyle=1;fillColor=#fff2cc;strokeColor=#d6b656;gradientColor=#ffd966;" parent="1" vertex="1">
          <mxGeometry x="480" y="400" width="120" height="40" as="geometry" />
        </mxCell>
        <mxCell id="s2Oo6yJtSZi4fsD_IYPC-67" style="edgeStyle=orthogonalEdgeStyle;rounded=0;orthogonalLoop=1;jettySize=auto;html=1;entryX=1;entryY=0.9;entryDx=0;entryDy=0;entryPerimeter=0;" parent="1" source="s2Oo6yJtSZi4fsD_IYPC-5" target="s2Oo6yJtSZi4fsD_IYPC-2" edge="1">
          <mxGeometry relative="1" as="geometry">
            <mxPoint x="240" y="575" as="targetPoint" />
          </mxGeometry>
        </mxCell>
        <mxCell id="s2Oo6yJtSZi4fsD_IYPC-98" value="发起外呼" style="edgeLabel;html=1;align=center;verticalAlign=middle;resizable=0;points=[];" parent="s2Oo6yJtSZi4fsD_IYPC-67" vertex="1" connectable="0">
          <mxGeometry x="-0.0333" y="1" relative="1" as="geometry">
            <mxPoint as="offset" />
          </mxGeometry>
        </mxCell>
        <mxCell id="s2Oo6yJtSZi4fsD_IYPC-5" value="&lt;b&gt;&lt;font style=&quot;font-size: 14px;&quot;&gt;Callout&lt;/font&gt;&lt;/b&gt;&lt;div&gt;外呼控制&lt;/div&gt;" style="rounded=0;whiteSpace=wrap;html=1;fillColor=#fff2cc;strokeColor=#d6b656;gradientColor=#ffd966;" parent="1" vertex="1">
          <mxGeometry x="480" y="560" width="120" height="40" as="geometry" />
        </mxCell>
        <mxCell id="s2Oo6yJtSZi4fsD_IYPC-8" value="用户" style="sketch=0;verticalLabelPosition=bottom;sketch=0;aspect=fixed;html=1;verticalAlign=top;strokeColor=none;fillColor=#000000;align=center;outlineConnect=0;pointerEvents=1;shape=mxgraph.citrix2.mobile;" parent="1" vertex="1">
          <mxGeometry x="-38.94" y="724.5" width="37.88" height="75" as="geometry" />
        </mxCell>
        <mxCell id="s2Oo6yJtSZi4fsD_IYPC-9" value="" style="endArrow=classic;startArrow=classic;html=1;rounded=0;" parent="1" source="s2Oo6yJtSZi4fsD_IYPC-8" target="s2Oo6yJtSZi4fsD_IYPC-10" edge="1">
          <mxGeometry width="50" height="50" relative="1" as="geometry">
            <mxPoint x="350" y="430" as="sourcePoint" />
            <mxPoint x="-80" y="500" as="targetPoint" />
          </mxGeometry>
        </mxCell>
        <mxCell id="s2Oo6yJtSZi4fsD_IYPC-10" value="PSTN" style="ellipse;shape=cloud;whiteSpace=wrap;html=1;" parent="1" vertex="1">
          <mxGeometry x="-80" y="460" width="120" height="80" as="geometry" />
        </mxCell>
        <mxCell id="s2Oo6yJtSZi4fsD_IYPC-11" value="" style="endArrow=classic;startArrow=classic;html=1;rounded=0;entryX=0;entryY=0.5;entryDx=0;entryDy=0;strokeWidth=2;" parent="1" source="s2Oo6yJtSZi4fsD_IYPC-10" target="s2Oo6yJtSZi4fsD_IYPC-2" edge="1">
          <mxGeometry width="50" height="50" relative="1" as="geometry">
            <mxPoint x="180" y="440" as="sourcePoint" />
            <mxPoint x="230" y="390" as="targetPoint" />
          </mxGeometry>
        </mxCell>
        <mxCell id="s2Oo6yJtSZi4fsD_IYPC-109" value="sip/rtp" style="edgeLabel;html=1;align=center;verticalAlign=middle;resizable=0;points=[];" parent="s2Oo6yJtSZi4fsD_IYPC-11" vertex="1" connectable="0">
          <mxGeometry x="0.05" relative="1" as="geometry">
            <mxPoint as="offset" />
          </mxGeometry>
        </mxCell>
        <mxCell id="s2Oo6yJtSZi4fsD_IYPC-14" value="" style="endArrow=classic;startArrow=classic;html=1;rounded=0;entryX=0.005;entryY=0.57;entryDx=0;entryDy=0;exitX=0.75;exitY=0;exitDx=0;exitDy=0;strokeWidth=2;entryPerimeter=0;" parent="1" source="s2Oo6yJtSZi4fsD_IYPC-2" target="3jVxFx188HEy8NwxxD-2-2" edge="1">
          <mxGeometry width="50" height="50" relative="1" as="geometry">
            <mxPoint x="180" y="560" as="sourcePoint" />
            <mxPoint x="230" y="510" as="targetPoint" />
          </mxGeometry>
        </mxCell>
        <mxCell id="s2Oo6yJtSZi4fsD_IYPC-16" value="webrtc&lt;div&gt;人机对话&lt;/div&gt;" style="edgeLabel;html=1;align=center;verticalAlign=middle;resizable=0;points=[];" parent="s2Oo6yJtSZi4fsD_IYPC-14" vertex="1" connectable="0">
          <mxGeometry x="0.1056" y="1" relative="1" as="geometry">
            <mxPoint x="-44" y="54" as="offset" />
          </mxGeometry>
        </mxCell>
        <mxCell id="s2Oo6yJtSZi4fsD_IYPC-27" value="" style="endArrow=classic;startArrow=classic;html=1;rounded=0;entryX=0;entryY=0.25;entryDx=0;entryDy=0;strokeWidth=2;exitX=1;exitY=0.25;exitDx=0;exitDy=0;" parent="1" source="3jVxFx188HEy8NwxxD-2-2" target="s2Oo6yJtSZi4fsD_IYPC-1" edge="1">
          <mxGeometry width="50" height="50" relative="1" as="geometry">
            <mxPoint x="440" y="230" as="sourcePoint" />
            <mxPoint x="520" y="230" as="targetPoint" />
          </mxGeometry>
        </mxCell>
        <mxCell id="s2Oo6yJtSZi4fsD_IYPC-28" value="人机对话&lt;div&gt;webrtc&lt;/div&gt;" style="edgeLabel;html=1;align=center;verticalAlign=middle;resizable=0;points=[];" parent="s2Oo6yJtSZi4fsD_IYPC-27" vertex="1" connectable="0">
          <mxGeometry x="-0.025" y="1" relative="1" as="geometry">
            <mxPoint x="1" y="-16" as="offset" />
          </mxGeometry>
        </mxCell>
        <mxCell id="s2Oo6yJtSZi4fsD_IYPC-52" style="edgeStyle=orthogonalEdgeStyle;rounded=0;orthogonalLoop=1;jettySize=auto;html=1;entryX=0.5;entryY=1;entryDx=0;entryDy=0;" parent="1" source="s2Oo6yJtSZi4fsD_IYPC-29" target="s2Oo6yJtSZi4fsD_IYPC-49" edge="1">
          <mxGeometry relative="1" as="geometry" />
        </mxCell>
        <mxCell id="s2Oo6yJtSZi4fsD_IYPC-63" style="edgeStyle=orthogonalEdgeStyle;rounded=0;orthogonalLoop=1;jettySize=auto;html=1;exitX=0.5;exitY=1;exitDx=0;exitDy=0;" parent="1" source="s2Oo6yJtSZi4fsD_IYPC-29" target="s2Oo6yJtSZi4fsD_IYPC-62" edge="1">
          <mxGeometry relative="1" as="geometry" />
        </mxCell>
        <mxCell id="s2Oo6yJtSZi4fsD_IYPC-29" value="OLA 平台" style="rounded=0;whiteSpace=wrap;html=1;fontSize=14;fontStyle=1;fillColor=#d5e8d4;strokeColor=#82b366;gradientColor=#97d077;" parent="1" vertex="1">
          <mxGeometry x="1121" y="480" width="120" height="80" as="geometry" />
        </mxCell>
        <mxCell id="s2Oo6yJtSZi4fsD_IYPC-30" value="通道管理" style="rounded=0;whiteSpace=wrap;html=1;" parent="1" vertex="1">
          <mxGeometry x="340" y="110" width="80" height="60" as="geometry" />
        </mxCell>
        <mxCell id="s2Oo6yJtSZi4fsD_IYPC-36" value="stream" style="verticalLabelPosition=bottom;verticalAlign=top;html=1;shape=mxgraph.flowchart.parallel_mode;pointerEvents=1" parent="1" vertex="1">
          <mxGeometry x="332.5" y="240" width="95" height="10" as="geometry" />
        </mxCell>
        <mxCell id="s2Oo6yJtSZi4fsD_IYPC-38" value="STT Server" style="rounded=0;whiteSpace=wrap;html=1;fontStyle=1;fillColor=#d5e8d4;strokeColor=#82b366;gradientColor=#97d077;" parent="1" vertex="1">
          <mxGeometry x="840" y="95" width="120" height="40" as="geometry" />
        </mxCell>
        <mxCell id="s2Oo6yJtSZi4fsD_IYPC-87" style="edgeStyle=orthogonalEdgeStyle;rounded=0;orthogonalLoop=1;jettySize=auto;html=1;entryX=0;entryY=0.5;entryDx=0;entryDy=0;" parent="1" source="s2Oo6yJtSZi4fsD_IYPC-39" target="s2Oo6yJtSZi4fsD_IYPC-86" edge="1">
          <mxGeometry relative="1" as="geometry" />
        </mxCell>
        <mxCell id="s2Oo6yJtSZi4fsD_IYPC-39" value="LLM Server" style="rounded=0;whiteSpace=wrap;html=1;fontStyle=1;fillColor=#d5e8d4;strokeColor=#82b366;gradientColor=#97d077;" parent="1" vertex="1">
          <mxGeometry x="840" y="135" width="120" height="40" as="geometry" />
        </mxCell>
        <mxCell id="s2Oo6yJtSZi4fsD_IYPC-40" value="TTS Server" style="rounded=0;whiteSpace=wrap;html=1;fontStyle=1;fillColor=#d5e8d4;strokeColor=#82b366;gradientColor=#97d077;" parent="1" vertex="1">
          <mxGeometry x="840" y="175" width="120" height="40" as="geometry" />
        </mxCell>
        <mxCell id="s2Oo6yJtSZi4fsD_IYPC-114" style="edgeStyle=orthogonalEdgeStyle;rounded=0;orthogonalLoop=1;jettySize=auto;html=1;entryX=1;entryY=0.5;entryDx=0;entryDy=0;" parent="1" source="s2Oo6yJtSZi4fsD_IYPC-43" target="s2Oo6yJtSZi4fsD_IYPC-86" edge="1">
          <mxGeometry relative="1" as="geometry" />
        </mxCell>
        <mxCell id="s2Oo6yJtSZi4fsD_IYPC-43" value="知识运营" style="rounded=0;whiteSpace=wrap;html=1;dashed=1;fillColor=#f5f5f5;gradientColor=#b3b3b3;strokeColor=#666666;" parent="1" vertex="1">
          <mxGeometry x="1121" y="135" width="120" height="40" as="geometry" />
        </mxCell>
        <mxCell id="s2Oo6yJtSZi4fsD_IYPC-45" value="服务录音" style="rounded=0;whiteSpace=wrap;html=1;" parent="1" vertex="1">
          <mxGeometry x="130" y="530" width="100" height="30" as="geometry" />
        </mxCell>
        <mxCell id="s2Oo6yJtSZi4fsD_IYPC-46" value="外呼桥接" style="rounded=0;whiteSpace=wrap;html=1;" parent="1" vertex="1">
          <mxGeometry x="130" y="560" width="100" height="30" as="geometry" />
        </mxCell>
        <mxCell id="s2Oo6yJtSZi4fsD_IYPC-49" value="&lt;b&gt;LLM-Prompt-转换器&lt;/b&gt;" style="rounded=0;whiteSpace=wrap;html=1;fillColor=#fff2cc;strokeColor=#d6b656;gradientColor=#ffd966;" parent="1" vertex="1">
          <mxGeometry x="1121" y="400" width="120" height="40" as="geometry" />
        </mxCell>
        <mxCell id="s2Oo6yJtSZi4fsD_IYPC-50" value="&lt;b&gt;Bot DB&lt;/b&gt;&lt;div&gt;&lt;div&gt;流程数据&lt;/div&gt;&lt;/div&gt;" style="shape=cylinder3;whiteSpace=wrap;html=1;boundedLbl=1;backgroundOutline=1;size=15;fillColor=#fff2cc;strokeColor=#d6b656;gradientColor=#ffd966;" parent="1" vertex="1">
          <mxGeometry x="680" y="390" width="120" height="60" as="geometry" />
        </mxCell>
        <mxCell id="s2Oo6yJtSZi4fsD_IYPC-51" style="edgeStyle=orthogonalEdgeStyle;rounded=0;orthogonalLoop=1;jettySize=auto;html=1;entryX=1;entryY=0.5;entryDx=0;entryDy=0;entryPerimeter=0;" parent="1" source="s2Oo6yJtSZi4fsD_IYPC-49" target="s2Oo6yJtSZi4fsD_IYPC-50" edge="1">
          <mxGeometry relative="1" as="geometry" />
        </mxCell>
        <mxCell id="s2Oo6yJtSZi4fsD_IYPC-82" value="场景流程写入" style="edgeLabel;html=1;align=center;verticalAlign=middle;resizable=0;points=[];" parent="s2Oo6yJtSZi4fsD_IYPC-51" vertex="1" connectable="0">
          <mxGeometry x="-0.0222" y="2" relative="1" as="geometry">
            <mxPoint y="-12" as="offset" />
          </mxGeometry>
        </mxCell>
        <mxCell id="s2Oo6yJtSZi4fsD_IYPC-59" value="转人工" style="rounded=0;whiteSpace=wrap;html=1;" parent="1" vertex="1">
          <mxGeometry x="130" y="500" width="100" height="30" as="geometry" />
        </mxCell>
        <mxCell id="s2Oo6yJtSZi4fsD_IYPC-61" value="&lt;b&gt;Hoicee DB&lt;/b&gt;&lt;div&gt;服务历史/机器人质检&lt;/div&gt;" style="shape=cylinder3;whiteSpace=wrap;html=1;boundedLbl=1;backgroundOutline=1;size=15;fillColor=#fff2cc;strokeColor=#d6b656;gradientColor=#ffd966;" parent="1" vertex="1">
          <mxGeometry x="680" y="470" width="120" height="60" as="geometry" />
        </mxCell>
        <mxCell id="s2Oo6yJtSZi4fsD_IYPC-62" value="ola&lt;div&gt;配置的数据&lt;/div&gt;" style="shape=cylinder3;whiteSpace=wrap;html=1;boundedLbl=1;backgroundOutline=1;size=15;fillColor=#d5e8d4;strokeColor=#82b366;gradientColor=#97d077;" parent="1" vertex="1">
          <mxGeometry x="1121" y="620" width="120" height="60" as="geometry" />
        </mxCell>
        <mxCell id="s2Oo6yJtSZi4fsD_IYPC-64" style="edgeStyle=orthogonalEdgeStyle;rounded=0;orthogonalLoop=1;jettySize=auto;html=1;entryX=0;entryY=0.5;entryDx=0;entryDy=0;entryPerimeter=0;" parent="1" source="s2Oo6yJtSZi4fsD_IYPC-3" target="s2Oo6yJtSZi4fsD_IYPC-61" edge="1">
          <mxGeometry relative="1" as="geometry" />
        </mxCell>
        <mxCell id="s2Oo6yJtSZi4fsD_IYPC-69" value="分配坐席" style="edgeLabel;html=1;align=center;verticalAlign=middle;resizable=0;points=[];" parent="s2Oo6yJtSZi4fsD_IYPC-64" vertex="1" connectable="0">
          <mxGeometry x="-0.0667" y="1" relative="1" as="geometry">
            <mxPoint as="offset" />
          </mxGeometry>
        </mxCell>
        <mxCell id="s2Oo6yJtSZi4fsD_IYPC-70" value="" style="endArrow=classic;html=1;rounded=0;exitX=0;exitY=0.75;exitDx=0;exitDy=0;" parent="1" source="s2Oo6yJtSZi4fsD_IYPC-3" edge="1">
          <mxGeometry width="50" height="50" relative="1" as="geometry">
            <mxPoint x="470" y="500" as="sourcePoint" />
            <mxPoint x="240" y="510" as="targetPoint" />
          </mxGeometry>
        </mxCell>
        <mxCell id="s2Oo6yJtSZi4fsD_IYPC-71" value="呼叫坐席" style="edgeLabel;html=1;align=center;verticalAlign=middle;resizable=0;points=[];" parent="s2Oo6yJtSZi4fsD_IYPC-70" vertex="1" connectable="0">
          <mxGeometry x="0.01" y="1" relative="1" as="geometry">
            <mxPoint x="1" y="9" as="offset" />
          </mxGeometry>
        </mxCell>
        <mxCell id="s2Oo6yJtSZi4fsD_IYPC-72" value="Core Pipline" style="rounded=0;whiteSpace=wrap;html=1;verticalAlign=top;fontStyle=1;movable=1;resizable=1;rotatable=1;deletable=1;editable=1;locked=0;connectable=1;" parent="1" vertex="1">
          <mxGeometry x="530" y="110" width="100" height="90" as="geometry" />
        </mxCell>
        <mxCell id="s2Oo6yJtSZi4fsD_IYPC-73" value="STT Plugin" style="rounded=0;whiteSpace=wrap;html=1;" parent="1" vertex="1">
          <mxGeometry x="650" y="110" width="100" height="30" as="geometry" />
        </mxCell>
        <mxCell id="s2Oo6yJtSZi4fsD_IYPC-74" value="LLM Plugin" style="rounded=0;whiteSpace=wrap;html=1;" parent="1" vertex="1">
          <mxGeometry x="650" y="140" width="100" height="30" as="geometry" />
        </mxCell>
        <mxCell id="s2Oo6yJtSZi4fsD_IYPC-75" value="TTS Plugin" style="rounded=0;whiteSpace=wrap;html=1;" parent="1" vertex="1">
          <mxGeometry x="650" y="170" width="100" height="30" as="geometry" />
        </mxCell>
        <mxCell id="s2Oo6yJtSZi4fsD_IYPC-76" value="流程识别及执行 Plugin&lt;div&gt;（含外呼）&lt;/div&gt;" style="rounded=0;whiteSpace=wrap;html=1;" parent="1" vertex="1">
          <mxGeometry x="530" y="240" width="220" height="30" as="geometry" />
        </mxCell>
        <mxCell id="s2Oo6yJtSZi4fsD_IYPC-80" style="edgeStyle=orthogonalEdgeStyle;rounded=0;orthogonalLoop=1;jettySize=auto;html=1;entryX=0;entryY=0;entryDx=0;entryDy=15;entryPerimeter=0;" parent="1" source="s2Oo6yJtSZi4fsD_IYPC-1" target="s2Oo6yJtSZi4fsD_IYPC-61" edge="1">
          <mxGeometry relative="1" as="geometry" />
        </mxCell>
        <mxCell id="s2Oo6yJtSZi4fsD_IYPC-81" value="写入服务历史" style="edgeLabel;html=1;align=center;verticalAlign=middle;resizable=0;points=[];" parent="s2Oo6yJtSZi4fsD_IYPC-80" vertex="1" connectable="0">
          <mxGeometry x="-0.0367" y="-1" relative="1" as="geometry">
            <mxPoint x="1" y="-38" as="offset" />
          </mxGeometry>
        </mxCell>
        <mxCell id="s2Oo6yJtSZi4fsD_IYPC-86" value="知识库&lt;div&gt;产品&lt;/div&gt;" style="rounded=0;whiteSpace=wrap;html=1;fontStyle=1;fontSize=14;fillColor=#d5e8d4;strokeColor=#82b366;gradientColor=#97d077;" parent="1" vertex="1">
          <mxGeometry x="1000" y="115" width="80" height="80" as="geometry" />
        </mxCell>
        <mxCell id="s2Oo6yJtSZi4fsD_IYPC-89" value="" style="endArrow=classic;html=1;rounded=0;entryX=0;entryY=0.5;entryDx=0;entryDy=0;exitX=1;exitY=0.5;exitDx=0;exitDy=0;" parent="1" source="s2Oo6yJtSZi4fsD_IYPC-73" target="s2Oo6yJtSZi4fsD_IYPC-38" edge="1">
          <mxGeometry width="50" height="50" relative="1" as="geometry">
            <mxPoint x="700" y="320" as="sourcePoint" />
            <mxPoint x="750" y="270" as="targetPoint" />
          </mxGeometry>
        </mxCell>
        <mxCell id="s2Oo6yJtSZi4fsD_IYPC-90" value="" style="endArrow=classic;html=1;rounded=0;entryX=0;entryY=0.5;entryDx=0;entryDy=0;exitX=1;exitY=0.5;exitDx=0;exitDy=0;" parent="1" source="s2Oo6yJtSZi4fsD_IYPC-74" target="s2Oo6yJtSZi4fsD_IYPC-39" edge="1">
          <mxGeometry width="50" height="50" relative="1" as="geometry">
            <mxPoint x="700" y="320" as="sourcePoint" />
            <mxPoint x="750" y="270" as="targetPoint" />
          </mxGeometry>
        </mxCell>
        <mxCell id="s2Oo6yJtSZi4fsD_IYPC-91" value="" style="endArrow=classic;html=1;rounded=0;entryX=0;entryY=0.5;entryDx=0;entryDy=0;exitX=1;exitY=0.5;exitDx=0;exitDy=0;" parent="1" source="s2Oo6yJtSZi4fsD_IYPC-75" target="s2Oo6yJtSZi4fsD_IYPC-40" edge="1">
          <mxGeometry width="50" height="50" relative="1" as="geometry">
            <mxPoint x="700" y="320" as="sourcePoint" />
            <mxPoint x="750" y="270" as="targetPoint" />
          </mxGeometry>
        </mxCell>
        <mxCell id="s2Oo6yJtSZi4fsD_IYPC-92" value="FS Core" style="rounded=0;whiteSpace=wrap;html=1;" parent="1" vertex="1">
          <mxGeometry x="130" y="430" width="100" height="60" as="geometry" />
        </mxCell>
        <mxCell id="s2Oo6yJtSZi4fsD_IYPC-95" style="edgeStyle=orthogonalEdgeStyle;rounded=0;orthogonalLoop=1;jettySize=auto;html=1;entryX=0;entryY=0.5;entryDx=0;entryDy=0;" parent="1" source="3jVxFx188HEy8NwxxD-2-1" target="3jVxFx188HEy8NwxxD-2-2" edge="1">
          <mxGeometry relative="1" as="geometry" />
        </mxCell>
        <mxCell id="s2Oo6yJtSZi4fsD_IYPC-96" value="内部信令" style="edgeLabel;html=1;align=center;verticalAlign=middle;resizable=0;points=[];" parent="s2Oo6yJtSZi4fsD_IYPC-95" vertex="1" connectable="0">
          <mxGeometry x="-0.1144" relative="1" as="geometry">
            <mxPoint y="-15" as="offset" />
          </mxGeometry>
        </mxCell>
        <mxCell id="s2Oo6yJtSZi4fsD_IYPC-99" value="" style="points=[[0.59,0,0],[0.87,0.015,0],[0.88,0.3,0],[0.99,0.99,0],[0.5,1,0],[0.01,0.99,0],[0.075,0.5,0],[0.17,0.115,0]];verticalLabelPosition=bottom;sketch=0;html=1;verticalAlign=top;aspect=fixed;align=center;pointerEvents=1;shape=mxgraph.cisco19.ip_phone;fillColor=#005073;strokeColor=none;" parent="1" vertex="1">
          <mxGeometry x="152.75" y="762" width="34.5" height="30" as="geometry" />
        </mxCell>
        <mxCell id="s2Oo6yJtSZi4fsD_IYPC-100" value="" style="points=[[0.59,0,0],[0.87,0.015,0],[0.88,0.3,0],[0.99,0.99,0],[0.5,1,0],[0.01,0.99,0],[0.075,0.5,0],[0.17,0.115,0]];verticalLabelPosition=bottom;sketch=0;html=1;verticalAlign=top;aspect=fixed;align=center;pointerEvents=1;shape=mxgraph.cisco19.ip_phone;fillColor=#005073;strokeColor=none;" parent="1" vertex="1">
          <mxGeometry x="195.5" y="762" width="34.5" height="30" as="geometry" />
        </mxCell>
        <mxCell id="s2Oo6yJtSZi4fsD_IYPC-101" value="" style="points=[[0.59,0,0],[0.87,0.015,0],[0.88,0.3,0],[0.99,0.99,0],[0.5,1,0],[0.01,0.99,0],[0.075,0.5,0],[0.17,0.115,0]];verticalLabelPosition=bottom;sketch=0;html=1;verticalAlign=top;aspect=fixed;align=center;pointerEvents=1;shape=mxgraph.cisco19.ip_phone;fillColor=#005073;strokeColor=none;" parent="1" vertex="1">
          <mxGeometry x="270" y="762" width="34.5" height="30" as="geometry" />
        </mxCell>
        <mxCell id="s2Oo6yJtSZi4fsD_IYPC-102" value="......" style="text;html=1;align=center;verticalAlign=middle;whiteSpace=wrap;rounded=0;fontStyle=1;fontSize=18;" parent="1" vertex="1">
          <mxGeometry x="230" y="762" width="40" height="30" as="geometry" />
        </mxCell>
        <mxCell id="s2Oo6yJtSZi4fsD_IYPC-105" value="" style="endArrow=classic;html=1;rounded=0;exitX=0.5;exitY=1;exitDx=0;exitDy=0;entryX=0.25;entryY=0;entryDx=0;entryDy=0;" parent="1" source="s2Oo6yJtSZi4fsD_IYPC-2" target="s2Oo6yJtSZi4fsD_IYPC-103" edge="1">
          <mxGeometry width="50" height="50" relative="1" as="geometry">
            <mxPoint x="400" y="510" as="sourcePoint" />
            <mxPoint x="450" y="460" as="targetPoint" />
          </mxGeometry>
        </mxCell>
        <mxCell id="s2Oo6yJtSZi4fsD_IYPC-106" value="sip 协商" style="edgeLabel;html=1;align=center;verticalAlign=middle;resizable=0;points=[];" parent="s2Oo6yJtSZi4fsD_IYPC-105" vertex="1" connectable="0">
          <mxGeometry x="-0.1" y="1" relative="1" as="geometry">
            <mxPoint x="-1" y="-15" as="offset" />
          </mxGeometry>
        </mxCell>
        <mxCell id="s2Oo6yJtSZi4fsD_IYPC-107" value="" style="endArrow=classic;startArrow=classic;html=1;rounded=0;entryX=0.75;entryY=1;entryDx=0;entryDy=0;exitX=0.75;exitY=0;exitDx=0;exitDy=0;strokeWidth=2;" parent="1" source="s2Oo6yJtSZi4fsD_IYPC-103" target="s2Oo6yJtSZi4fsD_IYPC-2" edge="1">
          <mxGeometry width="50" height="50" relative="1" as="geometry">
            <mxPoint x="250" y="700" as="sourcePoint" />
            <mxPoint x="300" y="650" as="targetPoint" />
          </mxGeometry>
        </mxCell>
        <mxCell id="s2Oo6yJtSZi4fsD_IYPC-108" value="rtp" style="edgeLabel;html=1;align=center;verticalAlign=middle;resizable=0;points=[];" parent="s2Oo6yJtSZi4fsD_IYPC-107" vertex="1" connectable="0">
          <mxGeometry x="-0.0142" y="-2" relative="1" as="geometry">
            <mxPoint x="-17" y="-21" as="offset" />
          </mxGeometry>
        </mxCell>
        <mxCell id="s2Oo6yJtSZi4fsD_IYPC-110" value="VAD" style="rounded=0;whiteSpace=wrap;html=1;movable=1;resizable=1;rotatable=1;deletable=1;editable=1;locked=0;connectable=1;" parent="1" vertex="1">
          <mxGeometry x="540" y="145" width="80" height="15" as="geometry" />
        </mxCell>
        <mxCell id="s2Oo6yJtSZi4fsD_IYPC-111" value="Turn Det" style="rounded=0;whiteSpace=wrap;html=1;movable=1;resizable=1;rotatable=1;deletable=1;editable=1;locked=0;connectable=1;" parent="1" vertex="1">
          <mxGeometry x="540" y="160" width="80" height="15" as="geometry" />
        </mxCell>
        <mxCell id="s2Oo6yJtSZi4fsD_IYPC-113" value="... ..." style="rounded=0;whiteSpace=wrap;html=1;fontStyle=1;fontSize=14;movable=1;resizable=1;rotatable=1;deletable=1;editable=1;locked=0;connectable=1;" parent="1" vertex="1">
          <mxGeometry x="540" y="175" width="80" height="15" as="geometry" />
        </mxCell>
        <mxCell id="s2Oo6yJtSZi4fsD_IYPC-115" style="edgeStyle=orthogonalEdgeStyle;rounded=0;orthogonalLoop=1;jettySize=auto;html=1;entryX=0;entryY=1;entryDx=0;entryDy=-15;entryPerimeter=0;" parent="1" source="s2Oo6yJtSZi4fsD_IYPC-5" target="s2Oo6yJtSZi4fsD_IYPC-61" edge="1">
          <mxGeometry relative="1" as="geometry" />
        </mxCell>
        <mxCell id="s2Oo6yJtSZi4fsD_IYPC-116" value="外呼任务/历史" style="edgeLabel;html=1;align=center;verticalAlign=middle;resizable=0;points=[];" parent="s2Oo6yJtSZi4fsD_IYPC-115" vertex="1" connectable="0">
          <mxGeometry x="-0.0029" y="-2" relative="1" as="geometry">
            <mxPoint as="offset" />
          </mxGeometry>
        </mxCell>
        <mxCell id="s2Oo6yJtSZi4fsD_IYPC-118" value="&lt;span&gt;&lt;span&gt;机器人自动外呼&lt;/span&gt;&lt;/span&gt;" style="rounded=1;whiteSpace=wrap;html=1;fontSize=12;fontStyle=0;sketch=1;curveFitting=1;jiggle=2;shadow=1;glass=0;" parent="1" vertex="1">
          <mxGeometry x="490" y="650" width="100" height="20" as="geometry" />
        </mxCell>
        <mxCell id="s2Oo6yJtSZi4fsD_IYPC-121" value="&lt;span style=&quot;font-size: 14px;&quot;&gt;&lt;span&gt;预测人工外呼&lt;/span&gt;&lt;/span&gt;" style="rounded=1;whiteSpace=wrap;html=1;fontStyle=0;sketch=1;curveFitting=1;jiggle=2;shadow=1;glass=0;" parent="1" vertex="1">
          <mxGeometry x="490" y="670" width="100" height="20" as="geometry" />
        </mxCell>
        <mxCell id="s2Oo6yJtSZi4fsD_IYPC-122" value="&lt;span style=&quot;font-size: 14px;&quot;&gt;&lt;span&gt;预览人工外呼&lt;/span&gt;&lt;/span&gt;" style="rounded=1;whiteSpace=wrap;html=1;fontStyle=0;sketch=1;curveFitting=1;jiggle=2;shadow=1;glass=0;" parent="1" vertex="1">
          <mxGeometry x="490" y="690" width="100" height="20" as="geometry" />
        </mxCell>
        <mxCell id="s2Oo6yJtSZi4fsD_IYPC-125" value="" style="endArrow=classic;html=1;rounded=0;entryX=0.5;entryY=0;entryDx=0;entryDy=0;exitX=0.5;exitY=1;exitDx=0;exitDy=0;shape=flexArrow;dashed=1;" parent="1" source="s2Oo6yJtSZi4fsD_IYPC-5" target="s2Oo6yJtSZi4fsD_IYPC-123" edge="1">
          <mxGeometry width="50" height="50" relative="1" as="geometry">
            <mxPoint x="550" y="560" as="sourcePoint" />
            <mxPoint x="600" y="510" as="targetPoint" />
          </mxGeometry>
        </mxCell>
        <mxCell id="s2Oo6yJtSZi4fsD_IYPC-129" value="" style="endArrow=classic;html=1;rounded=0;entryX=0;entryY=0.25;entryDx=0;entryDy=0;exitX=1;exitY=0;exitDx=0;exitDy=0;strokeWidth=2;fillColor=#6a00ff;strokeColor=#3700CC;" parent="1" source="s2Oo6yJtSZi4fsD_IYPC-2" target="zY-71Axrif6dldpMTdt1-2" edge="1">
          <mxGeometry width="50" height="50" relative="1" as="geometry">
            <mxPoint x="520" y="340" as="sourcePoint" />
            <mxPoint x="570" y="290" as="targetPoint" />
          </mxGeometry>
        </mxCell>
        <mxCell id="s2Oo6yJtSZi4fsD_IYPC-130" value="&lt;div&gt;webrtc&lt;/div&gt;转人工语音流" style="edgeLabel;html=1;align=center;verticalAlign=middle;resizable=0;points=[];" parent="s2Oo6yJtSZi4fsD_IYPC-129" vertex="1" connectable="0">
          <mxGeometry x="0.0214" y="1" relative="1" as="geometry">
            <mxPoint x="7" as="offset" />
          </mxGeometry>
        </mxCell>
        <mxCell id="s2Oo6yJtSZi4fsD_IYPC-131" value="kafka" style="sketch=0;points=[[0,0,0],[0.25,0,0],[0.5,0,0],[0.75,0,0],[1,0,0],[0,1,0],[0.25,1,0],[0.5,1,0],[0.75,1,0],[1,1,0],[0,0.25,0],[0,0.5,0],[0,0.75,0],[1,0.25,0],[1,0.5,0],[1,0.75,0]];outlineConnect=0;fontColor=#232F3E;fillColor=#8C4FFF;strokeColor=#ffffff;dashed=0;verticalLabelPosition=bottom;verticalAlign=top;align=center;html=1;fontSize=14;fontStyle=1;aspect=fixed;shape=mxgraph.aws4.resourceIcon;resIcon=mxgraph.aws4.managed_streaming_for_kafka;" parent="1" vertex="1">
          <mxGeometry x="840" y="280" width="80" height="80" as="geometry" />
        </mxCell>
        <mxCell id="s2Oo6yJtSZi4fsD_IYPC-133" value="" style="endArrow=classic;html=1;rounded=0;entryX=0;entryY=0.5;entryDx=0;entryDy=0;entryPerimeter=0;exitX=1;exitY=0.25;exitDx=0;exitDy=0;fillColor=#6a00ff;strokeColor=#3700CC;" parent="1" source="zY-71Axrif6dldpMTdt1-2" target="s2Oo6yJtSZi4fsD_IYPC-131" edge="1">
          <mxGeometry width="50" height="50" relative="1" as="geometry">
            <mxPoint x="660" y="340" as="sourcePoint" />
            <mxPoint x="710" y="290" as="targetPoint" />
          </mxGeometry>
        </mxCell>
        <mxCell id="s2Oo6yJtSZi4fsD_IYPC-141" value="ASR 结果" style="edgeLabel;html=1;align=center;verticalAlign=middle;resizable=0;points=[];" parent="s2Oo6yJtSZi4fsD_IYPC-133" vertex="1" connectable="0">
          <mxGeometry x="-0.1388" y="2" relative="1" as="geometry">
            <mxPoint x="-122" y="2" as="offset" />
          </mxGeometry>
        </mxCell>
        <mxCell id="s2Oo6yJtSZi4fsD_IYPC-136" value="" style="endArrow=classic;html=1;rounded=0;exitX=1;exitY=0.5;exitDx=0;exitDy=0;entryX=0;entryY=0.5;entryDx=0;entryDy=0;" parent="1" source="3jVxFx188HEy8NwxxD-2-2" target="s2Oo6yJtSZi4fsD_IYPC-1" edge="1">
          <mxGeometry width="50" height="50" relative="1" as="geometry">
            <mxPoint x="470" y="300" as="sourcePoint" />
            <mxPoint x="520" y="250" as="targetPoint" />
          </mxGeometry>
        </mxCell>
        <mxCell id="s2Oo6yJtSZi4fsD_IYPC-138" value="内部信令" style="edgeLabel;html=1;align=center;verticalAlign=middle;resizable=0;points=[];" parent="s2Oo6yJtSZi4fsD_IYPC-136" vertex="1" connectable="0">
          <mxGeometry x="0.0013" y="3" relative="1" as="geometry">
            <mxPoint y="-7" as="offset" />
          </mxGeometry>
        </mxCell>
        <mxCell id="SeScm0K-mPDrDvebRXbJ-1" value="图例" style="shape=document;whiteSpace=wrap;html=1;boundedLbl=1;verticalAlign=top;fontSize=14;fontStyle=1;textShadow=0;labelBackgroundColor=none;labelBorderColor=none;shadow=1;" parent="1" vertex="1">
          <mxGeometry x="740" y="672" width="320" height="130" as="geometry" />
        </mxCell>
        <mxCell id="SeScm0K-mPDrDvebRXbJ-2" value="需开发的服务" style="rounded=0;whiteSpace=wrap;html=1;fillColor=#fff2cc;gradientColor=#ffd966;strokeColor=#d6b656;" parent="1" vertex="1">
          <mxGeometry x="760" y="702" width="120" height="20" as="geometry" />
        </mxCell>
        <mxCell id="SeScm0K-mPDrDvebRXbJ-3" value="直接复用的服务" style="rounded=0;whiteSpace=wrap;html=1;fillColor=#d5e8d4;gradientColor=#97d077;strokeColor=#82b366;" parent="1" vertex="1">
          <mxGeometry x="760" y="722" width="120" height="20" as="geometry" />
        </mxCell>
        <mxCell id="SeScm0K-mPDrDvebRXbJ-5" value="虚拟的服务" style="rounded=0;whiteSpace=wrap;html=1;dashed=1;fillColor=#f5f5f5;gradientColor=#b3b3b3;strokeColor=#666666;" parent="1" vertex="1">
          <mxGeometry x="760" y="762" width="120" height="20" as="geometry" />
        </mxCell>
        <mxCell id="SeScm0K-mPDrDvebRXbJ-6" value="" style="endArrow=none;html=1;strokeWidth=1;rounded=0;" parent="1" edge="1">
          <mxGeometry width="50" height="50" relative="1" as="geometry">
            <mxPoint x="920" y="722" as="sourcePoint" />
            <mxPoint x="1040" y="722" as="targetPoint" />
          </mxGeometry>
        </mxCell>
        <mxCell id="SeScm0K-mPDrDvebRXbJ-7" value="接口/信令" style="edgeLabel;html=1;align=center;verticalAlign=middle;resizable=0;points=[];" parent="SeScm0K-mPDrDvebRXbJ-6" vertex="1" connectable="0">
          <mxGeometry x="0.0798" y="1" relative="1" as="geometry">
            <mxPoint y="1" as="offset" />
          </mxGeometry>
        </mxCell>
        <mxCell id="SeScm0K-mPDrDvebRXbJ-8" value="" style="endArrow=none;html=1;strokeWidth=2;rounded=0;" parent="1" edge="1">
          <mxGeometry width="50" height="50" relative="1" as="geometry">
            <mxPoint x="920" y="751.47" as="sourcePoint" />
            <mxPoint x="1040" y="751.47" as="targetPoint" />
          </mxGeometry>
        </mxCell>
        <mxCell id="SeScm0K-mPDrDvebRXbJ-9" value="语音流" style="edgeLabel;html=1;align=center;verticalAlign=middle;resizable=0;points=[];" parent="SeScm0K-mPDrDvebRXbJ-8" vertex="1" connectable="0">
          <mxGeometry x="0.0798" y="1" relative="1" as="geometry">
            <mxPoint as="offset" />
          </mxGeometry>
        </mxCell>
        <mxCell id="zY-71Axrif6dldpMTdt1-1" value="message" style="verticalLabelPosition=bottom;verticalAlign=top;html=1;shape=mxgraph.flowchart.parallel_mode;pointerEvents=1" vertex="1" parent="1">
          <mxGeometry x="332.5" y="200" width="95" height="10" as="geometry" />
        </mxCell>
        <mxCell id="zY-71Axrif6dldpMTdt1-2" value="VA 核心服务" style="rounded=0;whiteSpace=wrap;html=1;verticalAlign=top;fontStyle=1;fontSize=14;fillColor=#fff2cc;strokeColor=#d6b656;gradientColor=#ffd966;" vertex="1" parent="1">
          <mxGeometry x="320" y="300" width="120" height="80" as="geometry" />
        </mxCell>
        <mxCell id="zY-71Axrif6dldpMTdt1-3" value="人工对话 ASR" style="rounded=0;whiteSpace=wrap;html=1;" vertex="1" parent="1">
          <mxGeometry x="340" y="340" width="87.5" height="30" as="geometry" />
        </mxCell>
      </root>
    </mxGraphModel>
  </diagram>
  <diagram id="cNJfTfhHFNG-6ks2KBOj" name="VA语音系统架构-V2">
    <mxGraphModel dx="1657" dy="786" grid="1" gridSize="10" guides="1" tooltips="1" connect="1" arrows="1" fold="1" page="1" pageScale="1" pageWidth="827" pageHeight="1169" math="0" shadow="0">
      <root>
        <mxCell id="0" />
        <mxCell id="1" parent="0" />
        <mxCell id="fKo4yfTaGfTey8JTzYTf-1" value="&lt;font style=&quot;font-size: 14px;&quot;&gt;知识库&lt;/font&gt;&lt;div&gt;&lt;br&gt;&lt;/div&gt;&lt;div&gt;&lt;br&gt;&lt;/div&gt;&lt;div&gt;&lt;br&gt;&lt;/div&gt;&lt;div&gt;&lt;br&gt;&lt;/div&gt;&lt;div&gt;&lt;br&gt;&lt;/div&gt;&lt;div&gt;&lt;br&gt;&lt;/div&gt;&lt;div&gt;&lt;br&gt;&lt;/div&gt;&lt;div&gt;&lt;br&gt;&lt;/div&gt;&lt;div&gt;&lt;br&gt;&lt;/div&gt;&lt;div&gt;&lt;br&gt;&lt;/div&gt;&lt;div&gt;&lt;br&gt;&lt;/div&gt;&lt;div&gt;&lt;br&gt;&lt;/div&gt;&lt;div&gt;&lt;br&gt;&lt;/div&gt;&lt;div&gt;&lt;br&gt;&lt;/div&gt;&lt;div&gt;&lt;br&gt;&lt;/div&gt;" style="whiteSpace=wrap;html=1;aspect=fixed;dashed=1;" vertex="1" parent="1">
          <mxGeometry x="1456" y="239" width="240" height="240" as="geometry" />
        </mxCell>
        <mxCell id="n7fs-cxxanhkHgSCjhyD-1" value="" style="rounded=1;whiteSpace=wrap;html=1;sketch=1;curveFitting=1;jiggle=2;shadow=1;dashed=1;" parent="1" vertex="1">
          <mxGeometry x="900" y="810" width="120" height="80" as="geometry" />
        </mxCell>
        <mxCell id="n7fs-cxxanhkHgSCjhyD-2" value="人工坐席" style="rounded=0;whiteSpace=wrap;html=1;fontStyle=1;verticalAlign=top;fontSize=14;" parent="1" vertex="1">
          <mxGeometry x="550" y="892" width="200" height="80" as="geometry" />
        </mxCell>
        <mxCell id="n7fs-cxxanhkHgSCjhyD-3" value="VA SIP 代理" style="rounded=0;whiteSpace=wrap;html=1;fontStyle=1;fontSize=14;fillColor=#d5e8d4;strokeColor=#82b366;gradientColor=#97d077;" parent="1" vertex="1">
          <mxGeometry x="540" y="330" width="120" height="40" as="geometry" />
        </mxCell>
        <mxCell id="n7fs-cxxanhkHgSCjhyD-4" value="VA 核心服务" style="rounded=0;whiteSpace=wrap;html=1;verticalAlign=top;fontStyle=1;fontSize=14;fillColor=#fff2cc;strokeColor=#d6b656;gradientColor=#ffd966;" parent="1" vertex="1">
          <mxGeometry x="740" y="250" width="120" height="200" as="geometry" />
        </mxCell>
        <mxCell id="n7fs-cxxanhkHgSCjhyD-5" style="edgeStyle=orthogonalEdgeStyle;rounded=0;orthogonalLoop=1;jettySize=auto;html=1;exitX=0.25;exitY=1;exitDx=0;exitDy=0;" parent="1" source="n7fs-cxxanhkHgSCjhyD-9" target="n7fs-cxxanhkHgSCjhyD-18" edge="1">
          <mxGeometry relative="1" as="geometry" />
        </mxCell>
        <mxCell id="n7fs-cxxanhkHgSCjhyD-6" value="发起转人工" style="edgeLabel;html=1;align=center;verticalAlign=middle;resizable=0;points=[];" parent="n7fs-cxxanhkHgSCjhyD-5" vertex="1" connectable="0">
          <mxGeometry x="0.5286" relative="1" as="geometry">
            <mxPoint y="-2" as="offset" />
          </mxGeometry>
        </mxCell>
        <mxCell id="n7fs-cxxanhkHgSCjhyD-9" value="Agent" style="rounded=0;whiteSpace=wrap;html=1;verticalAlign=top;fontStyle=1;fontSize=14;fillColor=#fff2cc;strokeColor=#d6b656;gradientColor=#ffd966;" parent="1" vertex="1">
          <mxGeometry x="940" y="250" width="240" height="200" as="geometry" />
        </mxCell>
        <mxCell id="n7fs-cxxanhkHgSCjhyD-10" style="edgeStyle=orthogonalEdgeStyle;rounded=0;orthogonalLoop=1;jettySize=auto;html=1;entryX=0;entryY=0.25;entryDx=0;entryDy=0;exitX=1.009;exitY=0.454;exitDx=0;exitDy=0;exitPerimeter=0;" parent="1" source="n7fs-cxxanhkHgSCjhyD-14" target="n7fs-cxxanhkHgSCjhyD-15" edge="1">
          <mxGeometry relative="1" as="geometry" />
        </mxCell>
        <mxCell id="n7fs-cxxanhkHgSCjhyD-11" value="监听20000001的呼入&lt;div&gt;（消息：通道创建）&lt;/div&gt;" style="edgeLabel;html=1;align=center;verticalAlign=middle;resizable=0;points=[];" parent="n7fs-cxxanhkHgSCjhyD-10" vertex="1" connectable="0">
          <mxGeometry x="0.0588" relative="1" as="geometry">
            <mxPoint x="-6" y="-20" as="offset" />
          </mxGeometry>
        </mxCell>
        <mxCell id="n7fs-cxxanhkHgSCjhyD-12" style="edgeStyle=orthogonalEdgeStyle;rounded=0;orthogonalLoop=1;jettySize=auto;html=1;entryX=0.5;entryY=1;entryDx=0;entryDy=0;exitX=0.5;exitY=0;exitDx=0;exitDy=0;" parent="1" source="n7fs-cxxanhkHgSCjhyD-14" target="n7fs-cxxanhkHgSCjhyD-3" edge="1">
          <mxGeometry relative="1" as="geometry" />
        </mxCell>
        <mxCell id="n7fs-cxxanhkHgSCjhyD-13" value="sip 协商" style="edgeLabel;html=1;align=center;verticalAlign=middle;resizable=0;points=[];" parent="n7fs-cxxanhkHgSCjhyD-12" vertex="1" connectable="0">
          <mxGeometry x="0.2125" relative="1" as="geometry">
            <mxPoint y="57" as="offset" />
          </mxGeometry>
        </mxCell>
        <mxCell id="n7fs-cxxanhkHgSCjhyD-14" value="FreeSWITCH" style="rounded=0;whiteSpace=wrap;html=1;verticalAlign=top;fontStyle=1;fontSize=14;fillColor=#fff2cc;strokeColor=#d6b656;gradientColor=#ffd966;" parent="1" vertex="1">
          <mxGeometry x="540" y="570" width="120" height="200" as="geometry" />
        </mxCell>
        <mxCell id="n7fs-cxxanhkHgSCjhyD-15" value="&lt;font style=&quot;font-size: 14px;&quot;&gt;&lt;b&gt;CTI&lt;/b&gt;&lt;/font&gt;&lt;div&gt;分配坐席&lt;/div&gt;" style="rounded=0;whiteSpace=wrap;html=1;fillColor=#fff2cc;strokeColor=#d6b656;gradientColor=#ffd966;" parent="1" vertex="1">
          <mxGeometry x="900" y="650" width="120" height="40" as="geometry" />
        </mxCell>
        <mxCell id="n7fs-cxxanhkHgSCjhyD-16" style="edgeStyle=orthogonalEdgeStyle;rounded=0;orthogonalLoop=1;jettySize=auto;html=1;entryX=1;entryY=0.1;entryDx=0;entryDy=0;entryPerimeter=0;" parent="1" source="n7fs-cxxanhkHgSCjhyD-18" target="n7fs-cxxanhkHgSCjhyD-14" edge="1">
          <mxGeometry relative="1" as="geometry">
            <mxPoint x="780" y="610" as="targetPoint" />
          </mxGeometry>
        </mxCell>
        <mxCell id="n7fs-cxxanhkHgSCjhyD-17" value="发起呼叫2000001" style="edgeLabel;html=1;align=center;verticalAlign=middle;resizable=0;points=[];" parent="n7fs-cxxanhkHgSCjhyD-16" vertex="1" connectable="0">
          <mxGeometry x="-0.2087" y="-2" relative="1" as="geometry">
            <mxPoint x="-21" y="-8" as="offset" />
          </mxGeometry>
        </mxCell>
        <mxCell id="n7fs-cxxanhkHgSCjhyD-18" value="CC Robot" style="rounded=0;whiteSpace=wrap;html=1;fontSize=14;fontStyle=1;fillColor=#fff2cc;strokeColor=#d6b656;gradientColor=#ffd966;" parent="1" vertex="1">
          <mxGeometry x="900" y="570" width="120" height="40" as="geometry" />
        </mxCell>
        <mxCell id="n7fs-cxxanhkHgSCjhyD-19" style="edgeStyle=orthogonalEdgeStyle;rounded=0;orthogonalLoop=1;jettySize=auto;html=1;entryX=1;entryY=0.9;entryDx=0;entryDy=0;entryPerimeter=0;" parent="1" source="n7fs-cxxanhkHgSCjhyD-21" target="n7fs-cxxanhkHgSCjhyD-14" edge="1">
          <mxGeometry relative="1" as="geometry">
            <mxPoint x="660" y="745" as="targetPoint" />
          </mxGeometry>
        </mxCell>
        <mxCell id="n7fs-cxxanhkHgSCjhyD-20" value="发起外呼" style="edgeLabel;html=1;align=center;verticalAlign=middle;resizable=0;points=[];" parent="n7fs-cxxanhkHgSCjhyD-19" vertex="1" connectable="0">
          <mxGeometry x="-0.0333" y="1" relative="1" as="geometry">
            <mxPoint as="offset" />
          </mxGeometry>
        </mxCell>
        <mxCell id="n7fs-cxxanhkHgSCjhyD-21" value="&lt;b&gt;&lt;font style=&quot;font-size: 14px;&quot;&gt;Callout&lt;/font&gt;&lt;/b&gt;&lt;div&gt;外呼控制&lt;/div&gt;" style="rounded=0;whiteSpace=wrap;html=1;fillColor=#fff2cc;strokeColor=#d6b656;gradientColor=#ffd966;" parent="1" vertex="1">
          <mxGeometry x="900" y="730" width="120" height="40" as="geometry" />
        </mxCell>
        <mxCell id="n7fs-cxxanhkHgSCjhyD-22" value="用户" style="sketch=0;verticalLabelPosition=bottom;sketch=0;aspect=fixed;html=1;verticalAlign=top;strokeColor=none;fillColor=#000000;align=center;outlineConnect=0;pointerEvents=1;shape=mxgraph.citrix2.mobile;" parent="1" vertex="1">
          <mxGeometry x="381.06" y="894.5" width="37.88" height="75" as="geometry" />
        </mxCell>
        <mxCell id="n7fs-cxxanhkHgSCjhyD-23" value="" style="endArrow=classic;startArrow=classic;html=1;rounded=0;" parent="1" source="n7fs-cxxanhkHgSCjhyD-22" target="n7fs-cxxanhkHgSCjhyD-24" edge="1">
          <mxGeometry width="50" height="50" relative="1" as="geometry">
            <mxPoint x="770" y="600" as="sourcePoint" />
            <mxPoint x="340" y="670" as="targetPoint" />
          </mxGeometry>
        </mxCell>
        <mxCell id="n7fs-cxxanhkHgSCjhyD-24" value="PSTN" style="ellipse;shape=cloud;whiteSpace=wrap;html=1;" parent="1" vertex="1">
          <mxGeometry x="340" y="630" width="120" height="80" as="geometry" />
        </mxCell>
        <mxCell id="n7fs-cxxanhkHgSCjhyD-25" value="" style="endArrow=classic;startArrow=classic;html=1;rounded=0;entryX=0;entryY=0.5;entryDx=0;entryDy=0;strokeWidth=2;" parent="1" source="n7fs-cxxanhkHgSCjhyD-24" target="n7fs-cxxanhkHgSCjhyD-14" edge="1">
          <mxGeometry width="50" height="50" relative="1" as="geometry">
            <mxPoint x="600" y="610" as="sourcePoint" />
            <mxPoint x="650" y="560" as="targetPoint" />
          </mxGeometry>
        </mxCell>
        <mxCell id="n7fs-cxxanhkHgSCjhyD-26" value="sip/rtp" style="edgeLabel;html=1;align=center;verticalAlign=middle;resizable=0;points=[];" parent="n7fs-cxxanhkHgSCjhyD-25" vertex="1" connectable="0">
          <mxGeometry x="0.05" relative="1" as="geometry">
            <mxPoint as="offset" />
          </mxGeometry>
        </mxCell>
        <mxCell id="n7fs-cxxanhkHgSCjhyD-27" value="" style="endArrow=classic;startArrow=classic;html=1;rounded=0;entryX=0.005;entryY=0.57;entryDx=0;entryDy=0;exitX=0.75;exitY=0;exitDx=0;exitDy=0;strokeWidth=2;entryPerimeter=0;" parent="1" source="n7fs-cxxanhkHgSCjhyD-14" target="n7fs-cxxanhkHgSCjhyD-4" edge="1">
          <mxGeometry width="50" height="50" relative="1" as="geometry">
            <mxPoint x="600" y="730" as="sourcePoint" />
            <mxPoint x="650" y="680" as="targetPoint" />
          </mxGeometry>
        </mxCell>
        <mxCell id="n7fs-cxxanhkHgSCjhyD-28" value="webrtc&lt;div&gt;人机对话&lt;/div&gt;" style="edgeLabel;html=1;align=center;verticalAlign=middle;resizable=0;points=[];" parent="n7fs-cxxanhkHgSCjhyD-27" vertex="1" connectable="0">
          <mxGeometry x="0.1056" y="1" relative="1" as="geometry">
            <mxPoint x="-44" y="54" as="offset" />
          </mxGeometry>
        </mxCell>
        <mxCell id="n7fs-cxxanhkHgSCjhyD-29" value="" style="endArrow=classic;startArrow=classic;html=1;rounded=0;entryX=0;entryY=0.25;entryDx=0;entryDy=0;strokeWidth=2;exitX=1;exitY=0.25;exitDx=0;exitDy=0;" parent="1" source="n7fs-cxxanhkHgSCjhyD-4" target="n7fs-cxxanhkHgSCjhyD-9" edge="1">
          <mxGeometry width="50" height="50" relative="1" as="geometry">
            <mxPoint x="860" y="400" as="sourcePoint" />
            <mxPoint x="940" y="400" as="targetPoint" />
          </mxGeometry>
        </mxCell>
        <mxCell id="n7fs-cxxanhkHgSCjhyD-30" value="人机对话&lt;div&gt;webrtc&lt;/div&gt;" style="edgeLabel;html=1;align=center;verticalAlign=middle;resizable=0;points=[];" parent="n7fs-cxxanhkHgSCjhyD-29" vertex="1" connectable="0">
          <mxGeometry x="-0.025" y="1" relative="1" as="geometry">
            <mxPoint x="1" y="-16" as="offset" />
          </mxGeometry>
        </mxCell>
        <mxCell id="n7fs-cxxanhkHgSCjhyD-31" style="edgeStyle=orthogonalEdgeStyle;rounded=0;orthogonalLoop=1;jettySize=auto;html=1;entryX=0.5;entryY=1;entryDx=0;entryDy=0;" parent="1" source="n7fs-cxxanhkHgSCjhyD-33" target="n7fs-cxxanhkHgSCjhyD-44" edge="1">
          <mxGeometry relative="1" as="geometry" />
        </mxCell>
        <mxCell id="n7fs-cxxanhkHgSCjhyD-32" style="edgeStyle=orthogonalEdgeStyle;rounded=0;orthogonalLoop=1;jettySize=auto;html=1;exitX=0.5;exitY=1;exitDx=0;exitDy=0;" parent="1" source="n7fs-cxxanhkHgSCjhyD-33" target="n7fs-cxxanhkHgSCjhyD-50" edge="1">
          <mxGeometry relative="1" as="geometry" />
        </mxCell>
        <mxCell id="n7fs-cxxanhkHgSCjhyD-33" value="OLA 平台" style="rounded=0;whiteSpace=wrap;html=1;fontSize=14;fontStyle=1;fillColor=#d5e8d4;strokeColor=#82b366;gradientColor=#97d077;" parent="1" vertex="1">
          <mxGeometry x="1516" y="630" width="120" height="80" as="geometry" />
        </mxCell>
        <mxCell id="n7fs-cxxanhkHgSCjhyD-34" value="通道管理" style="rounded=0;whiteSpace=wrap;html=1;" parent="1" vertex="1">
          <mxGeometry x="760" y="280" width="80" height="60" as="geometry" />
        </mxCell>
        <mxCell id="n7fs-cxxanhkHgSCjhyD-35" value="stream" style="verticalLabelPosition=bottom;verticalAlign=top;html=1;shape=mxgraph.flowchart.parallel_mode;pointerEvents=1" parent="1" vertex="1">
          <mxGeometry x="752.5" y="410" width="95" height="10" as="geometry" />
        </mxCell>
        <mxCell id="n7fs-cxxanhkHgSCjhyD-36" value="STT Service" style="rounded=0;whiteSpace=wrap;html=1;fontStyle=1;fillColor=#d5e8d4;strokeColor=#82b366;gradientColor=#97d077;" parent="1" vertex="1">
          <mxGeometry x="1260" y="225" width="120" height="40" as="geometry" />
        </mxCell>
        <mxCell id="n7fs-cxxanhkHgSCjhyD-38" value="LLM Agent" style="rounded=0;whiteSpace=wrap;html=1;fontStyle=1;fillColor=#d5e8d4;strokeColor=#82b366;gradientColor=#97d077;" parent="1" vertex="1">
          <mxGeometry x="1260" y="305" width="120" height="40" as="geometry" />
        </mxCell>
        <mxCell id="n7fs-cxxanhkHgSCjhyD-39" value="TTS Service" style="rounded=0;whiteSpace=wrap;html=1;fontStyle=1;fillColor=#d5e8d4;strokeColor=#82b366;gradientColor=#97d077;" parent="1" vertex="1">
          <mxGeometry x="1260" y="385" width="120" height="40" as="geometry" />
        </mxCell>
        <mxCell id="fKo4yfTaGfTey8JTzYTf-8" style="edgeStyle=orthogonalEdgeStyle;rounded=0;orthogonalLoop=1;jettySize=auto;html=1;" edge="1" parent="1" source="n7fs-cxxanhkHgSCjhyD-41">
          <mxGeometry relative="1" as="geometry">
            <mxPoint x="1700" y="325" as="targetPoint" />
          </mxGeometry>
        </mxCell>
        <mxCell id="n7fs-cxxanhkHgSCjhyD-41" value="知识运营" style="rounded=0;whiteSpace=wrap;html=1;dashed=1;fillColor=#f5f5f5;gradientColor=#b3b3b3;strokeColor=#666666;" parent="1" vertex="1">
          <mxGeometry x="1766" y="305" width="120" height="40" as="geometry" />
        </mxCell>
        <mxCell id="n7fs-cxxanhkHgSCjhyD-42" value="服务录音" style="rounded=0;whiteSpace=wrap;html=1;" parent="1" vertex="1">
          <mxGeometry x="550" y="700" width="100" height="30" as="geometry" />
        </mxCell>
        <mxCell id="n7fs-cxxanhkHgSCjhyD-43" value="外呼桥接" style="rounded=0;whiteSpace=wrap;html=1;" parent="1" vertex="1">
          <mxGeometry x="550" y="730" width="100" height="30" as="geometry" />
        </mxCell>
        <mxCell id="fKo4yfTaGfTey8JTzYTf-6" style="edgeStyle=orthogonalEdgeStyle;rounded=0;orthogonalLoop=1;jettySize=auto;html=1;" edge="1" parent="1" source="n7fs-cxxanhkHgSCjhyD-44" target="fKo4yfTaGfTey8JTzYTf-1">
          <mxGeometry relative="1" as="geometry" />
        </mxCell>
        <mxCell id="n7fs-cxxanhkHgSCjhyD-44" value="&lt;b&gt;LLM-Prompt-转换器&lt;/b&gt;" style="rounded=0;whiteSpace=wrap;html=1;fillColor=#fff2cc;strokeColor=#d6b656;gradientColor=#ffd966;" parent="1" vertex="1">
          <mxGeometry x="1516" y="550" width="120" height="40" as="geometry" />
        </mxCell>
        <mxCell id="n7fs-cxxanhkHgSCjhyD-45" value="&lt;b&gt;Bot&amp;nbsp;&lt;/b&gt;&lt;span style=&quot;background-color: transparent; color: light-dark(rgb(0, 0, 0), rgb(255, 255, 255));&quot;&gt;流程知识&lt;/span&gt;" style="shape=cylinder3;whiteSpace=wrap;html=1;boundedLbl=1;backgroundOutline=1;size=15;fillColor=#fff2cc;strokeColor=#d6b656;gradientColor=#ffd966;" parent="1" vertex="1">
          <mxGeometry x="1489" y="410" width="175" height="60" as="geometry" />
        </mxCell>
        <mxCell id="n7fs-cxxanhkHgSCjhyD-48" value="转人工" style="rounded=0;whiteSpace=wrap;html=1;" parent="1" vertex="1">
          <mxGeometry x="550" y="670" width="100" height="30" as="geometry" />
        </mxCell>
        <mxCell id="n7fs-cxxanhkHgSCjhyD-49" value="&lt;b&gt;Hoicee DB&lt;/b&gt;&lt;div&gt;服务历史/机器人质检&lt;/div&gt;" style="shape=cylinder3;whiteSpace=wrap;html=1;boundedLbl=1;backgroundOutline=1;size=15;fillColor=#fff2cc;strokeColor=#d6b656;gradientColor=#ffd966;" parent="1" vertex="1">
          <mxGeometry x="1100" y="640" width="120" height="60" as="geometry" />
        </mxCell>
        <mxCell id="n7fs-cxxanhkHgSCjhyD-50" value="ola&lt;div&gt;配置的数据&lt;/div&gt;" style="shape=cylinder3;whiteSpace=wrap;html=1;boundedLbl=1;backgroundOutline=1;size=15;fillColor=#d5e8d4;strokeColor=#82b366;gradientColor=#97d077;" parent="1" vertex="1">
          <mxGeometry x="1516" y="770" width="120" height="60" as="geometry" />
        </mxCell>
        <mxCell id="n7fs-cxxanhkHgSCjhyD-51" style="edgeStyle=orthogonalEdgeStyle;rounded=0;orthogonalLoop=1;jettySize=auto;html=1;entryX=0;entryY=0.5;entryDx=0;entryDy=0;entryPerimeter=0;" parent="1" source="n7fs-cxxanhkHgSCjhyD-15" target="n7fs-cxxanhkHgSCjhyD-49" edge="1">
          <mxGeometry relative="1" as="geometry" />
        </mxCell>
        <mxCell id="n7fs-cxxanhkHgSCjhyD-52" value="分配坐席" style="edgeLabel;html=1;align=center;verticalAlign=middle;resizable=0;points=[];" parent="n7fs-cxxanhkHgSCjhyD-51" vertex="1" connectable="0">
          <mxGeometry x="-0.0667" y="1" relative="1" as="geometry">
            <mxPoint as="offset" />
          </mxGeometry>
        </mxCell>
        <mxCell id="n7fs-cxxanhkHgSCjhyD-53" value="" style="endArrow=classic;html=1;rounded=0;exitX=0;exitY=0.75;exitDx=0;exitDy=0;" parent="1" source="n7fs-cxxanhkHgSCjhyD-15" edge="1">
          <mxGeometry width="50" height="50" relative="1" as="geometry">
            <mxPoint x="890" y="670" as="sourcePoint" />
            <mxPoint x="660" y="680" as="targetPoint" />
          </mxGeometry>
        </mxCell>
        <mxCell id="n7fs-cxxanhkHgSCjhyD-54" value="呼叫坐席" style="edgeLabel;html=1;align=center;verticalAlign=middle;resizable=0;points=[];" parent="n7fs-cxxanhkHgSCjhyD-53" vertex="1" connectable="0">
          <mxGeometry x="0.01" y="1" relative="1" as="geometry">
            <mxPoint x="1" y="9" as="offset" />
          </mxGeometry>
        </mxCell>
        <mxCell id="n7fs-cxxanhkHgSCjhyD-55" value="Core Pipline" style="rounded=0;whiteSpace=wrap;html=1;verticalAlign=top;fontStyle=1;movable=1;resizable=1;rotatable=1;deletable=1;editable=1;locked=0;connectable=1;" parent="1" vertex="1">
          <mxGeometry x="950" y="280" width="100" height="90" as="geometry" />
        </mxCell>
        <mxCell id="n7fs-cxxanhkHgSCjhyD-59" value="流程识别及执行 Plugin&lt;div&gt;（含外呼）&lt;/div&gt;" style="rounded=0;whiteSpace=wrap;html=1;" parent="1" vertex="1">
          <mxGeometry x="950" y="410" width="220" height="30" as="geometry" />
        </mxCell>
        <mxCell id="n7fs-cxxanhkHgSCjhyD-60" style="edgeStyle=orthogonalEdgeStyle;rounded=0;orthogonalLoop=1;jettySize=auto;html=1;entryX=0;entryY=0;entryDx=0;entryDy=15;entryPerimeter=0;" parent="1" source="n7fs-cxxanhkHgSCjhyD-9" target="n7fs-cxxanhkHgSCjhyD-49" edge="1">
          <mxGeometry relative="1" as="geometry" />
        </mxCell>
        <mxCell id="n7fs-cxxanhkHgSCjhyD-61" value="写入服务历史" style="edgeLabel;html=1;align=center;verticalAlign=middle;resizable=0;points=[];" parent="n7fs-cxxanhkHgSCjhyD-60" vertex="1" connectable="0">
          <mxGeometry x="-0.0367" y="-1" relative="1" as="geometry">
            <mxPoint x="1" y="-38" as="offset" />
          </mxGeometry>
        </mxCell>
        <mxCell id="n7fs-cxxanhkHgSCjhyD-63" value="" style="endArrow=classic;html=1;rounded=0;entryX=0;entryY=0.5;entryDx=0;entryDy=0;exitX=1;exitY=0.5;exitDx=0;exitDy=0;" parent="1" target="n7fs-cxxanhkHgSCjhyD-36" edge="1">
          <mxGeometry width="50" height="50" relative="1" as="geometry">
            <mxPoint x="1170" y="295" as="sourcePoint" />
            <mxPoint x="1170" y="440" as="targetPoint" />
          </mxGeometry>
        </mxCell>
        <mxCell id="n7fs-cxxanhkHgSCjhyD-64" value="" style="endArrow=classic;html=1;rounded=0;entryX=0;entryY=0.5;entryDx=0;entryDy=0;exitX=1;exitY=0.5;exitDx=0;exitDy=0;" parent="1" target="n7fs-cxxanhkHgSCjhyD-38" edge="1">
          <mxGeometry width="50" height="50" relative="1" as="geometry">
            <mxPoint x="1170" y="325" as="sourcePoint" />
            <mxPoint x="1170" y="440" as="targetPoint" />
          </mxGeometry>
        </mxCell>
        <mxCell id="n7fs-cxxanhkHgSCjhyD-65" value="" style="endArrow=classic;html=1;rounded=0;entryX=0;entryY=0.5;entryDx=0;entryDy=0;exitX=1;exitY=0.5;exitDx=0;exitDy=0;" parent="1" target="n7fs-cxxanhkHgSCjhyD-39" edge="1">
          <mxGeometry width="50" height="50" relative="1" as="geometry">
            <mxPoint x="1170" y="355" as="sourcePoint" />
            <mxPoint x="1170" y="440" as="targetPoint" />
          </mxGeometry>
        </mxCell>
        <mxCell id="n7fs-cxxanhkHgSCjhyD-66" value="FS Core" style="rounded=0;whiteSpace=wrap;html=1;" parent="1" vertex="1">
          <mxGeometry x="550" y="600" width="100" height="60" as="geometry" />
        </mxCell>
        <mxCell id="n7fs-cxxanhkHgSCjhyD-67" style="edgeStyle=orthogonalEdgeStyle;rounded=0;orthogonalLoop=1;jettySize=auto;html=1;entryX=0;entryY=0.5;entryDx=0;entryDy=0;" parent="1" source="n7fs-cxxanhkHgSCjhyD-3" target="n7fs-cxxanhkHgSCjhyD-4" edge="1">
          <mxGeometry relative="1" as="geometry" />
        </mxCell>
        <mxCell id="n7fs-cxxanhkHgSCjhyD-68" value="内部信令" style="edgeLabel;html=1;align=center;verticalAlign=middle;resizable=0;points=[];" parent="n7fs-cxxanhkHgSCjhyD-67" vertex="1" connectable="0">
          <mxGeometry x="-0.1144" relative="1" as="geometry">
            <mxPoint y="-15" as="offset" />
          </mxGeometry>
        </mxCell>
        <mxCell id="n7fs-cxxanhkHgSCjhyD-69" value="" style="points=[[0.59,0,0],[0.87,0.015,0],[0.88,0.3,0],[0.99,0.99,0],[0.5,1,0],[0.01,0.99,0],[0.075,0.5,0],[0.17,0.115,0]];verticalLabelPosition=bottom;sketch=0;html=1;verticalAlign=top;aspect=fixed;align=center;pointerEvents=1;shape=mxgraph.cisco19.ip_phone;fillColor=#005073;strokeColor=none;" parent="1" vertex="1">
          <mxGeometry x="572.75" y="932" width="34.5" height="30" as="geometry" />
        </mxCell>
        <mxCell id="n7fs-cxxanhkHgSCjhyD-70" value="" style="points=[[0.59,0,0],[0.87,0.015,0],[0.88,0.3,0],[0.99,0.99,0],[0.5,1,0],[0.01,0.99,0],[0.075,0.5,0],[0.17,0.115,0]];verticalLabelPosition=bottom;sketch=0;html=1;verticalAlign=top;aspect=fixed;align=center;pointerEvents=1;shape=mxgraph.cisco19.ip_phone;fillColor=#005073;strokeColor=none;" parent="1" vertex="1">
          <mxGeometry x="615.5" y="932" width="34.5" height="30" as="geometry" />
        </mxCell>
        <mxCell id="n7fs-cxxanhkHgSCjhyD-71" value="" style="points=[[0.59,0,0],[0.87,0.015,0],[0.88,0.3,0],[0.99,0.99,0],[0.5,1,0],[0.01,0.99,0],[0.075,0.5,0],[0.17,0.115,0]];verticalLabelPosition=bottom;sketch=0;html=1;verticalAlign=top;aspect=fixed;align=center;pointerEvents=1;shape=mxgraph.cisco19.ip_phone;fillColor=#005073;strokeColor=none;" parent="1" vertex="1">
          <mxGeometry x="690" y="932" width="34.5" height="30" as="geometry" />
        </mxCell>
        <mxCell id="n7fs-cxxanhkHgSCjhyD-72" value="......" style="text;html=1;align=center;verticalAlign=middle;whiteSpace=wrap;rounded=0;fontStyle=1;fontSize=18;" parent="1" vertex="1">
          <mxGeometry x="650" y="932" width="40" height="30" as="geometry" />
        </mxCell>
        <mxCell id="n7fs-cxxanhkHgSCjhyD-73" value="" style="endArrow=classic;html=1;rounded=0;exitX=0.5;exitY=1;exitDx=0;exitDy=0;entryX=0.25;entryY=0;entryDx=0;entryDy=0;" parent="1" source="n7fs-cxxanhkHgSCjhyD-14" target="n7fs-cxxanhkHgSCjhyD-2" edge="1">
          <mxGeometry width="50" height="50" relative="1" as="geometry">
            <mxPoint x="820" y="680" as="sourcePoint" />
            <mxPoint x="870" y="630" as="targetPoint" />
          </mxGeometry>
        </mxCell>
        <mxCell id="n7fs-cxxanhkHgSCjhyD-74" value="sip 协商" style="edgeLabel;html=1;align=center;verticalAlign=middle;resizable=0;points=[];" parent="n7fs-cxxanhkHgSCjhyD-73" vertex="1" connectable="0">
          <mxGeometry x="-0.1" y="1" relative="1" as="geometry">
            <mxPoint x="-1" y="-15" as="offset" />
          </mxGeometry>
        </mxCell>
        <mxCell id="n7fs-cxxanhkHgSCjhyD-75" value="" style="endArrow=classic;startArrow=classic;html=1;rounded=0;entryX=0.75;entryY=1;entryDx=0;entryDy=0;exitX=0.75;exitY=0;exitDx=0;exitDy=0;strokeWidth=2;" parent="1" source="n7fs-cxxanhkHgSCjhyD-2" target="n7fs-cxxanhkHgSCjhyD-14" edge="1">
          <mxGeometry width="50" height="50" relative="1" as="geometry">
            <mxPoint x="670" y="870" as="sourcePoint" />
            <mxPoint x="720" y="820" as="targetPoint" />
          </mxGeometry>
        </mxCell>
        <mxCell id="n7fs-cxxanhkHgSCjhyD-76" value="rtp" style="edgeLabel;html=1;align=center;verticalAlign=middle;resizable=0;points=[];" parent="n7fs-cxxanhkHgSCjhyD-75" vertex="1" connectable="0">
          <mxGeometry x="-0.0142" y="-2" relative="1" as="geometry">
            <mxPoint x="-17" y="-21" as="offset" />
          </mxGeometry>
        </mxCell>
        <mxCell id="n7fs-cxxanhkHgSCjhyD-77" value="VAD" style="rounded=0;whiteSpace=wrap;html=1;movable=1;resizable=1;rotatable=1;deletable=1;editable=1;locked=0;connectable=1;" parent="1" vertex="1">
          <mxGeometry x="960" y="315" width="80" height="15" as="geometry" />
        </mxCell>
        <mxCell id="n7fs-cxxanhkHgSCjhyD-78" value="Turn Det" style="rounded=0;whiteSpace=wrap;html=1;movable=1;resizable=1;rotatable=1;deletable=1;editable=1;locked=0;connectable=1;" parent="1" vertex="1">
          <mxGeometry x="960" y="330" width="80" height="15" as="geometry" />
        </mxCell>
        <mxCell id="n7fs-cxxanhkHgSCjhyD-79" value="... ..." style="rounded=0;whiteSpace=wrap;html=1;fontStyle=1;fontSize=14;movable=1;resizable=1;rotatable=1;deletable=1;editable=1;locked=0;connectable=1;" parent="1" vertex="1">
          <mxGeometry x="960" y="345" width="80" height="15" as="geometry" />
        </mxCell>
        <mxCell id="n7fs-cxxanhkHgSCjhyD-80" style="edgeStyle=orthogonalEdgeStyle;rounded=0;orthogonalLoop=1;jettySize=auto;html=1;entryX=0;entryY=1;entryDx=0;entryDy=-15;entryPerimeter=0;" parent="1" source="n7fs-cxxanhkHgSCjhyD-21" target="n7fs-cxxanhkHgSCjhyD-49" edge="1">
          <mxGeometry relative="1" as="geometry" />
        </mxCell>
        <mxCell id="n7fs-cxxanhkHgSCjhyD-81" value="外呼任务/历史" style="edgeLabel;html=1;align=center;verticalAlign=middle;resizable=0;points=[];" parent="n7fs-cxxanhkHgSCjhyD-80" vertex="1" connectable="0">
          <mxGeometry x="-0.0029" y="-2" relative="1" as="geometry">
            <mxPoint as="offset" />
          </mxGeometry>
        </mxCell>
        <mxCell id="n7fs-cxxanhkHgSCjhyD-82" value="&lt;span&gt;&lt;span&gt;机器人自动外呼&lt;/span&gt;&lt;/span&gt;" style="rounded=1;whiteSpace=wrap;html=1;fontSize=12;fontStyle=0;sketch=1;curveFitting=1;jiggle=2;shadow=1;glass=0;" parent="1" vertex="1">
          <mxGeometry x="910" y="820" width="100" height="20" as="geometry" />
        </mxCell>
        <mxCell id="n7fs-cxxanhkHgSCjhyD-83" value="&lt;span style=&quot;font-size: 14px;&quot;&gt;&lt;span&gt;预测人工外呼&lt;/span&gt;&lt;/span&gt;" style="rounded=1;whiteSpace=wrap;html=1;fontStyle=0;sketch=1;curveFitting=1;jiggle=2;shadow=1;glass=0;" parent="1" vertex="1">
          <mxGeometry x="910" y="840" width="100" height="20" as="geometry" />
        </mxCell>
        <mxCell id="n7fs-cxxanhkHgSCjhyD-84" value="&lt;span style=&quot;font-size: 14px;&quot;&gt;&lt;span&gt;预览人工外呼&lt;/span&gt;&lt;/span&gt;" style="rounded=1;whiteSpace=wrap;html=1;fontStyle=0;sketch=1;curveFitting=1;jiggle=2;shadow=1;glass=0;" parent="1" vertex="1">
          <mxGeometry x="910" y="860" width="100" height="20" as="geometry" />
        </mxCell>
        <mxCell id="n7fs-cxxanhkHgSCjhyD-85" value="" style="endArrow=classic;html=1;rounded=0;entryX=0.5;entryY=0;entryDx=0;entryDy=0;exitX=0.5;exitY=1;exitDx=0;exitDy=0;shape=flexArrow;dashed=1;" parent="1" source="n7fs-cxxanhkHgSCjhyD-21" target="n7fs-cxxanhkHgSCjhyD-1" edge="1">
          <mxGeometry width="50" height="50" relative="1" as="geometry">
            <mxPoint x="970" y="730" as="sourcePoint" />
            <mxPoint x="1020" y="680" as="targetPoint" />
          </mxGeometry>
        </mxCell>
        <mxCell id="n7fs-cxxanhkHgSCjhyD-86" value="" style="endArrow=classic;html=1;rounded=0;entryX=0;entryY=0.25;entryDx=0;entryDy=0;exitX=1;exitY=0;exitDx=0;exitDy=0;strokeWidth=2;fillColor=#6a00ff;strokeColor=#3700CC;" parent="1" source="n7fs-cxxanhkHgSCjhyD-14" target="n7fs-cxxanhkHgSCjhyD-102" edge="1">
          <mxGeometry width="50" height="50" relative="1" as="geometry">
            <mxPoint x="940" y="510" as="sourcePoint" />
            <mxPoint x="990" y="460" as="targetPoint" />
          </mxGeometry>
        </mxCell>
        <mxCell id="n7fs-cxxanhkHgSCjhyD-87" value="&lt;div&gt;webrtc&lt;/div&gt;转人工语音流" style="edgeLabel;html=1;align=center;verticalAlign=middle;resizable=0;points=[];" parent="n7fs-cxxanhkHgSCjhyD-86" vertex="1" connectable="0">
          <mxGeometry x="0.0214" y="1" relative="1" as="geometry">
            <mxPoint x="7" as="offset" />
          </mxGeometry>
        </mxCell>
        <mxCell id="n7fs-cxxanhkHgSCjhyD-88" value="kafka" style="sketch=0;points=[[0,0,0],[0.25,0,0],[0.5,0,0],[0.75,0,0],[1,0,0],[0,1,0],[0.25,1,0],[0.5,1,0],[0.75,1,0],[1,1,0],[0,0.25,0],[0,0.5,0],[0,0.75,0],[1,0.25,0],[1,0.5,0],[1,0.75,0]];outlineConnect=0;fontColor=#232F3E;fillColor=#8C4FFF;strokeColor=#ffffff;dashed=0;verticalLabelPosition=bottom;verticalAlign=top;align=center;html=1;fontSize=14;fontStyle=1;aspect=fixed;shape=mxgraph.aws4.resourceIcon;resIcon=mxgraph.aws4.managed_streaming_for_kafka;" parent="1" vertex="1">
          <mxGeometry x="1260" y="457" width="80" height="80" as="geometry" />
        </mxCell>
        <mxCell id="n7fs-cxxanhkHgSCjhyD-89" value="" style="endArrow=classic;html=1;rounded=0;entryX=0;entryY=0.5;entryDx=0;entryDy=0;entryPerimeter=0;exitX=1;exitY=0.25;exitDx=0;exitDy=0;fillColor=#6a00ff;strokeColor=#3700CC;" parent="1" target="n7fs-cxxanhkHgSCjhyD-88" edge="1">
          <mxGeometry width="50" height="50" relative="1" as="geometry">
            <mxPoint x="860" y="497" as="sourcePoint" />
            <mxPoint x="1130" y="467" as="targetPoint" />
          </mxGeometry>
        </mxCell>
        <mxCell id="n7fs-cxxanhkHgSCjhyD-90" value="ASR 结果" style="edgeLabel;html=1;align=center;verticalAlign=middle;resizable=0;points=[];" parent="n7fs-cxxanhkHgSCjhyD-89" vertex="1" connectable="0">
          <mxGeometry x="-0.1388" y="2" relative="1" as="geometry">
            <mxPoint x="-122" y="2" as="offset" />
          </mxGeometry>
        </mxCell>
        <mxCell id="n7fs-cxxanhkHgSCjhyD-91" value="" style="endArrow=classic;html=1;rounded=0;exitX=1;exitY=0.5;exitDx=0;exitDy=0;entryX=0;entryY=0.5;entryDx=0;entryDy=0;" parent="1" source="n7fs-cxxanhkHgSCjhyD-4" target="n7fs-cxxanhkHgSCjhyD-9" edge="1">
          <mxGeometry width="50" height="50" relative="1" as="geometry">
            <mxPoint x="890" y="470" as="sourcePoint" />
            <mxPoint x="940" y="420" as="targetPoint" />
          </mxGeometry>
        </mxCell>
        <mxCell id="n7fs-cxxanhkHgSCjhyD-92" value="内部信令" style="edgeLabel;html=1;align=center;verticalAlign=middle;resizable=0;points=[];" parent="n7fs-cxxanhkHgSCjhyD-91" vertex="1" connectable="0">
          <mxGeometry x="0.0013" y="3" relative="1" as="geometry">
            <mxPoint y="-7" as="offset" />
          </mxGeometry>
        </mxCell>
        <mxCell id="n7fs-cxxanhkHgSCjhyD-93" value="图例" style="shape=document;whiteSpace=wrap;html=1;boundedLbl=1;verticalAlign=top;fontSize=14;fontStyle=1;textShadow=0;labelBackgroundColor=none;labelBorderColor=none;shadow=1;" parent="1" vertex="1">
          <mxGeometry x="1160" y="842" width="320" height="130" as="geometry" />
        </mxCell>
        <mxCell id="n7fs-cxxanhkHgSCjhyD-94" value="需开发的服务" style="rounded=0;whiteSpace=wrap;html=1;fillColor=#fff2cc;gradientColor=#ffd966;strokeColor=#d6b656;" parent="1" vertex="1">
          <mxGeometry x="1180" y="872" width="120" height="20" as="geometry" />
        </mxCell>
        <mxCell id="n7fs-cxxanhkHgSCjhyD-95" value="直接复用的服务" style="rounded=0;whiteSpace=wrap;html=1;fillColor=#d5e8d4;gradientColor=#97d077;strokeColor=#82b366;" parent="1" vertex="1">
          <mxGeometry x="1180" y="892" width="120" height="20" as="geometry" />
        </mxCell>
        <mxCell id="n7fs-cxxanhkHgSCjhyD-96" value="虚拟的服务" style="rounded=0;whiteSpace=wrap;html=1;dashed=1;fillColor=#f5f5f5;gradientColor=#b3b3b3;strokeColor=#666666;" parent="1" vertex="1">
          <mxGeometry x="1180" y="932" width="120" height="20" as="geometry" />
        </mxCell>
        <mxCell id="n7fs-cxxanhkHgSCjhyD-97" value="" style="endArrow=none;html=1;strokeWidth=1;rounded=0;" parent="1" edge="1">
          <mxGeometry width="50" height="50" relative="1" as="geometry">
            <mxPoint x="1340" y="892" as="sourcePoint" />
            <mxPoint x="1460" y="892" as="targetPoint" />
          </mxGeometry>
        </mxCell>
        <mxCell id="n7fs-cxxanhkHgSCjhyD-98" value="接口/信令" style="edgeLabel;html=1;align=center;verticalAlign=middle;resizable=0;points=[];" parent="n7fs-cxxanhkHgSCjhyD-97" vertex="1" connectable="0">
          <mxGeometry x="0.0798" y="1" relative="1" as="geometry">
            <mxPoint y="1" as="offset" />
          </mxGeometry>
        </mxCell>
        <mxCell id="n7fs-cxxanhkHgSCjhyD-99" value="" style="endArrow=none;html=1;strokeWidth=2;rounded=0;" parent="1" edge="1">
          <mxGeometry width="50" height="50" relative="1" as="geometry">
            <mxPoint x="1340" y="921.47" as="sourcePoint" />
            <mxPoint x="1460" y="921.47" as="targetPoint" />
          </mxGeometry>
        </mxCell>
        <mxCell id="n7fs-cxxanhkHgSCjhyD-100" value="语音流" style="edgeLabel;html=1;align=center;verticalAlign=middle;resizable=0;points=[];" parent="n7fs-cxxanhkHgSCjhyD-99" vertex="1" connectable="0">
          <mxGeometry x="0.0798" y="1" relative="1" as="geometry">
            <mxPoint as="offset" />
          </mxGeometry>
        </mxCell>
        <mxCell id="n7fs-cxxanhkHgSCjhyD-101" value="message" style="verticalLabelPosition=bottom;verticalAlign=top;html=1;shape=mxgraph.flowchart.parallel_mode;pointerEvents=1" parent="1" vertex="1">
          <mxGeometry x="752.5" y="370" width="95" height="10" as="geometry" />
        </mxCell>
        <mxCell id="n7fs-cxxanhkHgSCjhyD-102" value="VA 核心服务" style="rounded=0;whiteSpace=wrap;html=1;verticalAlign=top;fontStyle=1;fontSize=14;fillColor=#fff2cc;strokeColor=#d6b656;gradientColor=#ffd966;" parent="1" vertex="1">
          <mxGeometry x="740" y="470" width="120" height="80" as="geometry" />
        </mxCell>
        <mxCell id="n7fs-cxxanhkHgSCjhyD-103" value="人工对话 ASR" style="rounded=0;whiteSpace=wrap;html=1;" parent="1" vertex="1">
          <mxGeometry x="760" y="510" width="87.5" height="30" as="geometry" />
        </mxCell>
        <mxCell id="H-KlPCUVsB4fFYCO2jJG-3" style="edgeStyle=orthogonalEdgeStyle;rounded=0;orthogonalLoop=1;jettySize=auto;html=1;" parent="1" edge="1">
          <mxGeometry relative="1" as="geometry">
            <mxPoint x="1450" y="325" as="targetPoint" />
            <mxPoint x="1380" y="324.5" as="sourcePoint" />
          </mxGeometry>
        </mxCell>
        <mxCell id="sKFeaHyNzZBfZvi5_S0y-6" value="" style="image;html=1;image=img/lib/clip_art/networking/Cloud_Rack_Private_128x128.png" parent="1" vertex="1">
          <mxGeometry x="1260" y="250" width="50.5" height="40" as="geometry" />
        </mxCell>
        <mxCell id="sKFeaHyNzZBfZvi5_S0y-7" value="" style="image;html=1;image=img/lib/clip_art/computers/Server_Rack_Empty_128x128.png" parent="1" vertex="1">
          <mxGeometry x="1330" y="255" width="40" height="30" as="geometry" />
        </mxCell>
        <mxCell id="sKFeaHyNzZBfZvi5_S0y-8" value="" style="image;html=1;image=img/lib/clip_art/networking/Cloud_Rack_Private_128x128.png" parent="1" vertex="1">
          <mxGeometry x="1260" y="330" width="50.5" height="40" as="geometry" />
        </mxCell>
        <mxCell id="sKFeaHyNzZBfZvi5_S0y-9" value="" style="image;html=1;image=img/lib/clip_art/computers/Server_Rack_Empty_128x128.png" parent="1" vertex="1">
          <mxGeometry x="1330" y="335" width="40" height="30" as="geometry" />
        </mxCell>
        <mxCell id="sKFeaHyNzZBfZvi5_S0y-10" value="" style="image;html=1;image=img/lib/clip_art/networking/Cloud_Rack_Private_128x128.png" parent="1" vertex="1">
          <mxGeometry x="1260" y="411" width="50.5" height="40" as="geometry" />
        </mxCell>
        <mxCell id="sKFeaHyNzZBfZvi5_S0y-11" value="" style="image;html=1;image=img/lib/clip_art/computers/Server_Rack_Empty_128x128.png" parent="1" vertex="1">
          <mxGeometry x="1330" y="414" width="40" height="30" as="geometry" />
        </mxCell>
        <mxCell id="sKFeaHyNzZBfZvi5_S0y-13" value="DocumentQA" style="rounded=0;whiteSpace=wrap;html=1;fontStyle=1;fontSize=14;fillColor=#d5e8d4;strokeColor=#82b366;gradientColor=#97d077;" parent="1" vertex="1">
          <mxGeometry x="1484" y="275" width="180" height="40" as="geometry" />
        </mxCell>
        <mxCell id="sKFeaHyNzZBfZvi5_S0y-14" value="FAQ" style="rounded=0;whiteSpace=wrap;html=1;fontStyle=1;fontSize=14;fillColor=#d5e8d4;strokeColor=#82b366;gradientColor=#97d077;" parent="1" vertex="1">
          <mxGeometry x="1484" y="335" width="180" height="40" as="geometry" />
        </mxCell>
        <mxCell id="OCcca7kc5Etfcr8jxGuu-1" value="STT Plugin" style="rounded=0;whiteSpace=wrap;html=1;" parent="1" vertex="1">
          <mxGeometry x="1070" y="280" width="100" height="30" as="geometry" />
        </mxCell>
        <mxCell id="OCcca7kc5Etfcr8jxGuu-2" value="LLM Plugin" style="rounded=0;whiteSpace=wrap;html=1;" parent="1" vertex="1">
          <mxGeometry x="1070" y="310" width="100" height="30" as="geometry" />
        </mxCell>
        <mxCell id="OCcca7kc5Etfcr8jxGuu-3" value="TTS Plugin" style="rounded=0;whiteSpace=wrap;html=1;" parent="1" vertex="1">
          <mxGeometry x="1070" y="340" width="100" height="30" as="geometry" />
        </mxCell>
      </root>
    </mxGraphModel>
  </diagram>
</mxfile>
